<?xml version="1.0" encoding="utf-8"?>
<!-- Generator: Adobe Illustrator 27.5.0, SVG Export Plug-In . SVG Version: 6.00 Build 0)  -->
<svg version="1.1" id="Layer_1" xmlns="http://www.w3.org/2000/svg" xmlns:xlink="http://www.w3.org/1999/xlink" x="0px" y="0px"
	 viewBox="0 0 101.24 158.119" style="enable-background:new 0 0 101.24 158.119;" xml:space="preserve">
<g>
	<g>
		<g>
			<g>
				<g>
					<path style="fill:#C3A4E0;" d="M40.285,70.062c0.063,0.174,1.825-0.048,1.974-0.064c1.539-0.173,2.996-0.624,4.376-1.322
						c2.728-1.379,4.623-4.448,5.268-7.37c1.006-4.559-0.463-10.099-4.523-12.783c-0.208-0.137-0.433-0.295-0.678-0.361
						c-1-0.269,0.418,2.11,0.64,2.904c0,0-4.946-4.338-4.584-1.939c0.405,2.684,2.512,4.849,3.075,7.535
						c0.79,3.769-1.692,6.342-4.283,8.668c-0.103,0.093-2.33,1.786-2.345,1.743C39.205,67.073,40.285,70.06,40.285,70.062z"/>
					<g>
						<path style="fill:#C3A4E0;" d="M50.904,61.253c-0.645,2.922-2.539,5.99-5.268,7.369c-1.38,0.698-2.837,1.149-4.376,1.322
							c-0.072,0.008-0.527,0.065-0.982,0.101c0.002,0.006,0.006,0.017,0.006,0.017c0.063,0.174,1.825-0.048,1.973-0.064
							c1.539-0.173,2.996-0.624,4.376-1.322c2.728-1.379,4.623-4.448,5.267-7.37c1.006-4.559-0.463-10.099-4.523-12.783
							c-0.208-0.137-0.433-0.295-0.678-0.361c-0.273-0.073-0.362,0.055-0.348,0.29c0.009,0.006,0.019,0.012,0.028,0.018
							C50.441,51.153,51.91,56.694,50.904,61.253z"/>
						<path style="fill:#C3A4E0;" d="M45.87,49.875c-1.155-0.871-2.63-1.821-3.027-1.341c1.362,0.602,3.501,2.478,3.501,2.478
							C46.272,50.753,46.072,50.325,45.87,49.875z"/>
					</g>
					<g>
						<path style="fill:#C3A4E0;" d="M46.853,63.085c0.355-0.972,0.535-2.002,0.605-3.035c0.221-3.246-0.674-6.558-2.498-9.251
							c-0.243-0.359-0.514-0.755-0.454-1.184c0.027-0.195,0.173-0.362,0.346-0.457c-1.168-0.76-2.271-1.209-2.094-0.03
							c0.405,2.684,2.512,4.849,3.075,7.535c0.79,3.769-1.692,6.342-4.283,8.668c-0.103,0.093-2.33,1.786-2.345,1.743
							c0,0,0.354,0.98,0.657,1.818c0.939-0.171,1.854-0.472,2.699-0.918C44.522,66.937,46.094,65.169,46.853,63.085z"/>
					</g>
					<path style="fill:#4C1172;" d="M40.677,70.364c-0.536,0-0.572-0.104-0.615-0.223l0.008-0.003
						c-0.076-0.186-0.298-0.799-1.088-2.985c-0.031-0.087-0.008-0.185,0.058-0.25c0.024-0.024,0.053-0.042,0.084-0.054
						c0.241-0.147,2.128-1.575,2.269-1.698c2.546-2.284,4.968-4.818,4.208-8.442c-0.263-1.253-0.888-2.423-1.493-3.554
						c-0.673-1.256-1.367-2.555-1.584-3.993c-0.07-0.461,0.031-0.77,0.3-0.917c0.756-0.418,2.729,1.029,3.934,2.012
						c-0.008-0.018-0.016-0.034-0.024-0.052c-0.505-1.121-0.791-1.825-0.509-2.157c0.083-0.097,0.241-0.198,0.54-0.117
						c0.264,0.071,0.497,0.225,0.702,0.362c3.197,2.114,5.989,7.081,4.669,13.063c-0.725,3.285-2.842,6.241-5.392,7.531
						c-1.426,0.721-2.926,1.174-4.457,1.346C41.498,70.327,40.998,70.364,40.677,70.364z M40.509,69.982h0.007H40.509z
						 M40.507,69.977C40.507,69.978,40.508,69.978,40.507,69.977c0.001,0.002,0.002,0.004,0.002,0.005
						C40.509,69.98,40.508,69.979,40.507,69.977z M40.474,69.883c0.133,0.012,0.542,0.02,1.708-0.116
						c1.525-0.173,2.971-0.609,4.346-1.303c2.428-1.228,4.447-4.058,5.142-7.209c0.919-4.167-0.304-9.812-4.422-12.534
						c-0.23-0.153-0.42-0.279-0.61-0.33c-0.061-0.018-0.086-0.013-0.086-0.012c-0.046,0.172,0.398,1.159,0.612,1.632
						c0.181,0.402,0.338,0.75,0.405,0.991c0.028,0.101-0.014,0.209-0.103,0.265c-0.089,0.056-0.204,0.047-0.283-0.023
						c-1.637-1.434-3.684-2.825-4.135-2.581c-0.07,0.039-0.092,0.2-0.057,0.43c0.205,1.356,0.851,2.562,1.534,3.84
						c0.621,1.161,1.263,2.36,1.54,3.68c0.811,3.872-1.708,6.517-4.358,8.894c-0.017,0.015-1.511,1.225-2.22,1.652
						C39.687,67.709,40.318,69.455,40.474,69.883z"/>
				</g>
				<g>
					<path style="fill:#C3A4E0;" d="M37.813,69.613c0,0,9.904-5.539,6.704-12.932c-3.2-7.393-12.18-9.731-13.425-8.172
						c-1.245,1.56,1.469,2.6,1.885,3.109c0,0-4.929,0.504-3.233,2.89s18.955,3.153,8.203,13.078
						C37.949,67.585,35.668,71.081,37.813,69.613z"/>
					<g>
						<path style="fill:#C3A4E0;" d="M30.789,49.16c-0.124,0.798,0.722,1.429,1.414,1.889C31.597,50.57,30.778,49.908,30.789,49.16z
							"/>
						<path style="fill:#C3A4E0;" d="M43.84,57.623c2.068,6.218-4.393,10.456-6.877,11.822c-0.17,0.517-0.06,0.79,0.85,0.168
							c0,0,9.904-5.539,6.704-12.932c-2.312-5.342-7.64-8.043-10.889-8.543C36.814,48.871,41.982,52.035,43.84,57.623z"/>
						<path style="fill:#C3A4E0;" d="M31.093,48.509c0.345-0.433,1.288-0.564,2.536-0.372c-1.172-0.27-2.078-0.215-2.448,0.174
							c-0.278,0.292-0.388,0.576-0.392,0.85C30.821,48.954,30.91,48.737,31.093,48.509z"/>
					</g>
					<g>
						<path style="fill:#C3A4E0;" d="M31.093,48.509c-1.245,1.56,1.469,2.6,1.885,3.109c0,0-4.929,0.504-3.233,2.89
							c1.697,2.386,18.955,3.153,8.203,13.077c0,0-1.053,1.616-1.052,2.188c2.247-1.319,3.964-3.49,5.056-5.876
							c0.576-1.258,0.995-2.729,0.456-4.003c-0.372-0.88-1.147-1.521-1.942-2.05c-2.03-1.35-4.347-2.188-6.605-3.107
							c-0.472-0.192-1-0.452-1.125-0.946c-0.103-0.408,0.13-0.845,0.474-1.086c0.344-0.241,0.862-0.482,1.282-0.502
							c-0.554-0.45-1.168-0.842-1.61-1.403c-0.442-0.56-0.682-1.356-0.363-1.994c0.171-0.342,0.477-0.573,0.832-0.708
							C32.242,47.967,31.412,48.109,31.093,48.509z"/>
					</g>
					<path style="fill:#4C1172;" d="M37.056,70.21c-0.106,0-0.2-0.032-0.278-0.108c-0.305-0.3,0.021-1.189,0.972-2.647
						c2.622-2.43,3.754-4.463,3.403-6.09c-0.542-2.511-4.448-3.807-7.586-4.849c-1.963-0.651-3.513-1.166-4.015-1.871
						c-0.408-0.574-0.505-1.11-0.287-1.59c0.454-1.002,2.213-1.433,3.129-1.593c-0.05-0.033-0.102-0.068-0.155-0.102
						c-0.66-0.435-1.563-1.03-1.693-1.847c-0.061-0.388,0.06-0.775,0.361-1.152c0.386-0.483,1.307-0.656,2.583-0.484
						c3.19,0.426,8.816,3.096,11.246,8.71c1.348,3.114,0.589,6.397-2.194,9.492c-2.035,2.263-4.409,3.627-4.603,3.737
						C37.637,70.02,37.314,70.21,37.056,70.21z M32.604,48.288c-0.652,0-1.134,0.129-1.326,0.369
						c-0.217,0.272-0.302,0.527-0.262,0.781c0.096,0.61,0.899,1.138,1.485,1.524c0.301,0.199,0.538,0.354,0.66,0.505
						c0.056,0.068,0.07,0.16,0.036,0.241c-0.033,0.081-0.109,0.136-0.196,0.146c-0.779,0.08-2.893,0.487-3.305,1.396
						c-0.145,0.321-0.066,0.687,0.242,1.12c0.411,0.578,2.046,1.121,3.777,1.695c3.254,1.08,7.302,2.423,7.901,5.2
						c0.394,1.828-0.752,3.953-3.507,6.495c-0.511,0.795-0.941,1.653-0.979,1.961c0.083-0.027,0.25-0.1,0.547-0.304
						c0.006-0.005,0.012-0.008,0.019-0.011c0.097-0.055,9.68-5.522,6.603-12.631c-2.351-5.433-7.79-8.017-10.872-8.429
						C33.132,48.307,32.855,48.288,32.604,48.288z"/>
				</g>
			</g>
			<g>
				<path style="opacity:0.3;fill:#C3A4E0;" d="M34.899,48.942c-0.51-0.157-1.128-0.253-1.522,0.106
					c-0.302,0.275-0.359,0.751-0.222,1.136c0.138,0.385,0.436,0.692,0.76,0.941c0.535,0.412,1.152,0.699,1.764,0.984
					c1.127,0.523,2.267,1.051,3.482,1.311c0.273,0.058,0.57,0.1,0.82-0.024c0.211-0.106,0.302-0.327,0.299-0.552
					c-0.002-0.175-0.085-0.279-0.193-0.409c-0.327-0.394-0.676-0.768-1.053-1.114c-0.76-0.698-1.62-1.287-2.545-1.744
					C35.978,49.322,35.445,49.11,34.899,48.942z"/>
				<path style="opacity:0.3;fill:#C3A4E0;" d="M34.43,49.076c-0.342-0.069-0.75-0.091-0.983,0.169
					c-0.178,0.199-0.184,0.512-0.07,0.753c0.115,0.241,0.329,0.421,0.556,0.562c0.374,0.233,0.795,0.379,1.211,0.524
					c0.767,0.267,1.542,0.535,2.349,0.624c0.181,0.02,0.378,0.028,0.532-0.07c0.131-0.082,0.175-0.232,0.158-0.378
					c-0.013-0.114-0.074-0.176-0.152-0.253c-0.238-0.235-0.49-0.455-0.758-0.655c-0.54-0.404-1.138-0.731-1.769-0.967
					C35.157,49.252,34.797,49.149,34.43,49.076z"/>
			</g>
			<path style="opacity:0.3;fill:#C3A4E0;" d="M43.456,69.106c1.455-0.783,2.929-1.623,4.124-2.781
				c1.116-1.081,1.968-2.431,2.476-3.899c0.579-1.676,0.678-3.508,0.447-5.258c-0.264-2-0.92-4.083-1.954-5.823
				c-0.084-0.141-0.27-0.551-0.446-0.606c-0.059-0.019-0.119-0.079-0.126,0.032c-0.042,0.732,0.034,1.386-0.383,1.104
				c-0.453-0.307-0.694,0.055-0.584,0.506c0.175,0.713,0.661,1.255,0.977,1.898c0.333,0.677,0.585,1.393,0.752,2.129
				c0.35,1.536,0.23,2.994-0.009,4.528c-0.246,1.581-0.816,3.148-1.622,4.527c-0.097,0.165-0.197,0.327-0.301,0.487
				C45.96,67.249,44.829,68.367,43.456,69.106z"/>
		</g>
		<g>
			<path style="fill:#C3A4E0;" d="M69.682,110.082c-1.523,1.909-3.065,3.738-4.643,5.504c-0.769,0.268-1.568,0.451-2.347,0.551
				c-0.137,0.018-0.263,0.023-0.391,0.031c-0.03-0.003-0.06-0.004-0.091-0.007c-0.134-1.063-0.227-2.133-0.244-3.214
				c-0.064-4.009,0.189-7.965,0.191-11.94c0.509-0.115,1.014-0.236,1.511-0.374c0.315-0.088,0.628-0.183,0.938-0.284
				c0.026-0.008,0.052-0.017,0.078-0.025c0.278-0.092,0.554-0.192,0.829-0.297c0.054-0.02,0.108-0.039,0.161-0.06
				c0.252-0.1,0.503-0.208,0.752-0.321c0.066-0.03,0.134-0.057,0.2-0.088c0.308-0.144,0.613-0.298,0.916-0.466
				c2.147-1.19,3.876-2.856,5.623-4.54c2.068-1.992,3.973-4.15,5.752-6.401c2.549-3.227,5.157-6.719,6.825-10.52
				c1.788-4.073,6.591-13.175,8.456-8.736c0.445,1.059,0.738,2.153,0.905,3.279c0.535,3.594-0.244,7.52-1.744,11.721
				c-1.793,5.022-13.344,14.007-15.4,15.577c0.083-0.028,0.167-0.055,0.25-0.087c0.586-0.337,1.588-0.911,2.814-1.606
				c3.791-2.148,9.712-5.439,12.012-6.373c2.886-1.172,6.36,0.467,5.145,4.12c-0.259,0.778-0.726,1.646-1.462,2.6
				c-3.973,5.148-19.144,8.69-20.706,9.043c0.04,0.007,0.079,0.012,0.119,0.017c0.482-0.023,1.618-0.079,3.046-0.146
				c3.281-0.155,8.109-0.375,10.131-0.427c2.397-0.061,3.994,2.34,1.888,4.826c-0.703,0.83-1.819,1.669-3.456,2.429
				c-6.274,2.913-17.131-3.248-18.003-3.753C69.703,110.094,69.682,110.082,69.682,110.082z"/>
			<g>
				<path style="fill:#EC69B0;" d="M85.351,111.551c0.754-0.687,1.298-1.654,1.299-2.674c0.001-1.068-0.58-2.033-1.36-2.789
					c1.572-0.101,2.973-0.185,3.846-0.227c2.383-0.113,3.917,2.255,1.772,4.787c-0.716,0.845-1.842,1.709-3.484,2.504
					c-2.173,1.053-4.866,1.035-7.495,0.54c0.937-0.145,1.862-0.372,2.758-0.682C83.649,112.677,84.597,112.239,85.351,111.551z"/>
				<path style="fill:#EC69B0;" d="M98.184,94.581c-0.274,0.784-0.756,1.662-1.508,2.632c-1.531,1.976-4.642,3.757-8.006,5.23
					c0.861-0.606,1.614-1.298,2.054-2.262c0.745-1.635,0.741-3.593-0.011-5.224c-0.404-0.876-1.03-1.66-1.826-2.197
					c1.772-0.973,3.33-1.786,4.275-2.189C96.054,89.336,99.469,90.901,98.184,94.581z"/>
				<path style="fill:#EC69B0;" d="M94.801,68.028c0.419,1.049,0.686,2.138,0.829,3.26c0.454,3.584-0.404,7.527-1.984,11.762
					c-0.258,0.691-0.699,1.461-1.272,2.278c0.006-0.503-0.042-1.01-0.13-1.505c-0.508-2.861-2.266-5.477-4.722-7.029
					c-0.307-0.194-0.649-0.367-1.003-0.5C88.568,71.946,93.132,63.848,94.801,68.028z"/>
			</g>
			<g style="opacity:0.6;">
				<path style="fill:#C3A4E0;" d="M73.813,93.734c0.962-0.584,1.89-1.986,2.651-2.825c0.96-1.058,1.869-2.165,2.756-3.284
					c2.602-3.282,5.266-6.832,7.005-10.67c1.022-2.255,2.184-4.476,3.554-6.54c0.622-0.937,1.291-1.905,2.13-2.665
					c0.277-0.251,2.111-1.598,1.943-0.398c-0.301,2.155-1.304,4.154-2.495,5.975C86.555,80.668,81.186,88.768,73.813,93.734z"/>
				<path style="fill:#C3A4E0;" d="M92.068,92.403c-5.99,3.279-10.964,4.808-10.964,4.808c3.811-2.23,9.762-5.649,12.067-6.633
					c2.602-1.111,5.625,0.046,5.27,2.969C97.615,92.013,95.811,90.354,92.068,92.403z"/>
				<path style="fill:#C3A4E0;" d="M87.09,107.177c-3.628-0.052-5.928-0.42-7.216-0.718c3.204-0.22,7.42-0.502,9.27-0.589
					c2.238-0.106,3.727,1.977,2.121,4.329C91.448,108.927,90.961,107.233,87.09,107.177z"/>
			</g>
			<g>
				<path style="fill:#FFD600;" d="M75.794,106.743c0,0,0.047-0.011,0.132-0.033c0.039,0.006,0.078,0.01,0.118,0.015
					C75.882,106.737,75.794,106.743,75.794,106.743z"/>
				<path style="fill:#FFD600;" d="M77.707,99.216c0,0,0.113-0.086,0.317-0.245c0.083-0.03,0.167-0.058,0.25-0.092
					C77.913,99.093,77.707,99.216,77.707,99.216z"/>
				<path style="fill:#FFD600;" d="M66.766,99.3c-0.066,0.032-0.134,0.061-0.201,0.092C66.632,99.361,66.7,99.333,66.766,99.3z"/>
				<path style="fill:#FFD600;" d="M65.812,99.729c-0.053,0.022-0.108,0.042-0.161,0.064C65.704,99.771,65.758,99.752,65.812,99.729
					z"/>
				<path style="fill:#FFD600;" d="M64.821,100.108c-0.026,0.009-0.052,0.018-0.078,0.027
					C64.769,100.125,64.795,100.117,64.821,100.108z"/>
				<path style="fill:#FFD600;" d="M67.686,98.814c-0.305,0.174-0.611,0.335-0.92,0.486C67.075,99.15,67.382,98.989,67.686,98.814z"
					/>
				<path style="fill:#FFD600;" d="M66.565,99.392c-0.25,0.118-0.501,0.232-0.754,0.337C66.065,99.625,66.315,99.51,66.565,99.392z"
					/>
				<path style="fill:#FFD600;" d="M63.805,100.438c0.315-0.095,0.627-0.196,0.938-0.304
					C64.432,100.242,64.119,100.343,63.805,100.438L63.805,100.438z"/>
				<path style="fill:#FFD600;" d="M65.651,99.793c-0.275,0.111-0.551,0.217-0.83,0.315C65.099,100.01,65.376,99.904,65.651,99.793z
					"/>
				<path style="fill:#FFD600;" d="M78.275,98.878c0.589-0.35,1.597-0.946,2.83-1.667c-0.289,0.194-0.576,0.39-0.868,0.58
					C79.617,98.196,78.96,98.598,78.275,98.878z"/>
				<path style="fill:#C3A4E0;" d="M93.655,83.058c-1.889,5.062-13.554,14.298-15.63,15.913c-0.574,0.206-1.166,0.322-1.776,0.267
					c2.104-2.174,4.209-4.348,6.313-6.522c3.283-3.392,6.589-6.813,9.119-10.798c2.041-3.215,3.559-6.857,3.959-10.621
					C96.093,74.88,95.234,78.823,93.655,83.058z"/>
				<path style="fill:#C3A4E0;" d="M80.433,111.941c3.523,0.477,7.205,0.128,10.482-1.285c-0.716,0.845-1.842,1.709-3.484,2.504
					c-6.294,3.049-16.945-2.881-17.8-3.368c0.571-1.004,1.032-1.813,1.032-1.813C69.902,109.316,79.465,111.81,80.433,111.941z"/>
				<path style="fill:#FFD600;" d="M76.044,106.726c0.479-0.034,1.608-0.114,3.028-0.212c-0.678,0.091-1.358,0.164-2.04,0.219
					C76.717,106.758,76.374,106.763,76.044,106.726z"/>
				<path style="fill:#C3A4E0;" d="M75.926,106.711c-0.588-0.087-1.114-0.323-1.338-0.85c2.943-1.141,5.916-2.207,8.913-3.196
					c3.114-1.027,6.277-1.982,9.161-3.542c0.152-0.082,0.302-0.166,0.452-0.251c1.298-0.742,2.524-1.618,3.607-2.651
					c0.531-0.506,1.025-1.051,1.472-1.632c-0.274,0.784-0.756,1.662-1.507,2.632C92.629,102.455,77.485,106.324,75.926,106.711z"/>
			</g>
			<path style="fill:#4C1172;" d="M62.121,116.243c-0.018,0-0.046-0.001-0.054-0.001l-0.067-0.004
				c-0.113-0.01-0.203-0.099-0.215-0.212c-0.123-1.181-0.179-2.24-0.174-3.236c0.012-2.245,0.124-4.51,0.234-6.7
				c0.085-1.721,0.174-3.501,0.212-5.252c0.003-0.107,0.076-0.2,0.181-0.225c0.505-0.124,1.004-0.254,1.497-0.403
				c0.313-0.094,0.622-0.195,0.929-0.301l0.157,0.199l-0.079-0.224c0.275-0.097,0.547-0.202,0.819-0.312l0.16-0.063
				c0.249-0.103,0.496-0.215,0.743-0.331l0.199-0.092c0.303-0.148,0.606-0.306,0.905-0.478c2.129-1.22,3.829-2.871,5.628-4.619
				c1.983-1.927,3.89-4.054,5.837-6.512c2.443-3.08,5.196-6.695,6.975-10.621c0.475-1.049,4.712-10.223,7.536-10.223
				c0.01,0,0.02,0,0.03,0c0.625,0.015,1.115,0.456,1.457,1.313c0.412,1.034,0.696,2.15,0.843,3.319
				c0.421,3.319-0.213,7.092-1.996,11.874c-1.517,4.065-9.155,10.707-13.344,14.13c0.146-0.085,0.296-0.174,0.45-0.264
				c4.282-2.505,9.855-5.692,12.094-6.646c1.714-0.731,3.604-0.529,4.707,0.502c0.953,0.891,1.177,2.241,0.632,3.804
				c-0.298,0.854-0.817,1.763-1.544,2.7c-3.309,4.27-13.802,7.617-18.605,8.967l0.787-0.055c5.143-0.355,8.533-0.572,10.077-0.646
				c1.239-0.067,2.304,0.511,2.784,1.485c0.539,1.095,0.24,2.441-0.82,3.692c-0.8,0.945-1.998,1.808-3.562,2.564
				c-6.177,2.992-16.263-2.39-17.902-3.307c-1.515,1.89-3.065,3.725-4.611,5.457c-0.026,0.03-0.058,0.052-0.095,0.065
				c-0.768,0.285-1.572,0.491-2.39,0.614c-0.111,0.017-0.216,0.025-0.32,0.034l-0.084,0.007
				C62.131,116.243,62.126,116.243,62.121,116.243z M62.528,101.031c-0.04,1.698-0.125,3.419-0.208,5.084
				c-0.108,2.185-0.221,4.444-0.233,6.679c-0.006,0.917,0.044,1.889,0.149,2.964c0.074-0.007,0.15-0.013,0.23-0.025
				c0.766-0.116,1.52-0.307,2.241-0.57c1.569-1.762,3.144-3.629,4.681-5.552c0.074-0.093,0.207-0.114,0.306-0.056l0.053,0.03
				c0.461,0.262,11.341,6.382,17.58,3.361c1.504-0.728,2.649-1.55,3.408-2.445c0.932-1.1,1.208-2.258,0.756-3.175
				c-0.395-0.803-1.31-1.275-2.336-1.22c-1.541,0.072-4.927,0.289-10.066,0.644l-3.028,0.211l-0.168-0.017
				c-0.112-0.016-0.198-0.109-0.204-0.223c-0.006-0.113,0.07-0.215,0.18-0.242c1.691-0.42,16.633-4.249,20.63-9.406
				c0.694-0.896,1.188-1.759,1.469-2.564c0.481-1.375,0.301-2.547-0.507-3.301c-0.968-0.906-2.656-1.07-4.197-0.413
				c-2.333,0.995-8.545,4.576-12.041,6.62c-1.231,0.721-2.239,1.316-2.828,1.666c-0.092,0.04-0.151,0.061-0.212,0.083l-0.078,0.028
				c-0.111,0.043-0.233-0.005-0.289-0.107c-0.057-0.102-0.031-0.231,0.062-0.302c2.271-1.767,13.698-10.835,15.553-15.809
				c1.755-4.707,2.382-8.409,1.97-11.649c-0.143-1.129-0.416-2.206-0.813-3.202c-0.268-0.673-0.604-1.004-1.027-1.014
				c-0.006,0-0.014,0-0.02,0c-1.905,0-5.287,5.938-7.102,9.944c-1.8,3.973-4.575,7.617-7.034,10.719
				c-1.961,2.473-3.882,4.615-5.872,6.55c-1.749,1.7-3.549,3.448-5.731,4.698c-0.309,0.177-0.621,0.34-0.933,0.493l-0.204,0.094
				c-0.252,0.12-0.507,0.236-0.763,0.341l-0.165,0.065c-0.276,0.112-0.556,0.219-0.838,0.318c0,0.001-0.08,0.027-0.08,0.027
				c-0.315,0.109-0.629,0.212-0.947,0.307C63.43,100.799,62.981,100.918,62.528,101.031z M64.844,115.366h0.006H64.844z"/>
			<g>
				<g style="opacity:0.6;">
					<path style="fill:#FFFFFF;" d="M91.339,79.708c-4.065,5.51-8.384,10.625-12.937,15.729c-0.108,0.121,0.054,0.279,0.176,0.176
						c5.168-4.332,9.66-9.917,12.984-15.775C91.647,79.69,91.436,79.576,91.339,79.708L91.339,79.708z"/>
				</g>
				<g style="opacity:0.6;">
					<path style="fill:#FFFFFF;" d="M92.298,78.434c0.646-0.904,1.262-1.996,1.414-3.115c0.025-0.182-0.228-0.339-0.328-0.138
						c-0.505,1.004-0.862,2.08-1.37,3.087C91.917,78.46,92.175,78.605,92.298,78.434L92.298,78.434z"/>
				</g>
				<g style="opacity:0.6;">
					<path style="fill:#FFFFFF;" d="M93.818,70.497C91.377,75.729,88.5,80.54,84.787,84.98c-0.15,0.179,0.096,0.437,0.261,0.261
						c3.967-4.222,7.117-9.152,9.007-14.643C94.102,70.46,93.881,70.364,93.818,70.497L93.818,70.497z"/>
				</g>
				<g style="opacity:0.6;">
					<path style="fill:#FFFFFF;" d="M96.542,93.375c-2.929,4.94-10.582,6.03-15.2,8.85c-0.146,0.089-0.053,0.337,0.119,0.283
						c3.427-1.088,6.736-2.856,9.983-4.391c2.272-1.074,4.273-2.249,5.373-4.58C96.904,93.353,96.649,93.196,96.542,93.375
						L96.542,93.375z"/>
				</g>
				<g style="opacity:0.6;">
					<path style="fill:#FFFFFF;" d="M94.993,92.92c-1.885-0.088-3.757,0.927-4.911,2.381c-0.129,0.162,0.063,0.352,0.226,0.226
						c1.453-1.131,2.987-1.807,4.711-2.41C95.125,93.079,95.108,92.925,94.993,92.92L94.993,92.92z"/>
				</g>
				<g style="opacity:0.6;">
					<path style="fill:#FFFFFF;" d="M90.764,108.484c-1.179-2.218-4.655-0.969-6.499-0.626c-0.114,0.021-0.082,0.193,0.026,0.196
						c2.031,0.059,4.621-1.04,6.293,0.569C90.679,108.715,90.825,108.599,90.764,108.484L90.764,108.484z"/>
				</g>
				<g style="opacity:0.6;">
					<path style="fill:#FFFFFF;" d="M83.153,108.067c-0.565,0.003-1.175-0.067-1.677,0.231c-0.107,0.063-0.086,0.231,0.034,0.264
						c0.564,0.154,1.134-0.074,1.68-0.221C83.342,108.301,83.311,108.067,83.153,108.067L83.153,108.067z"/>
				</g>
			</g>
		</g>
		<g>
			<g>
				<path style="fill:#C3A4E0;" d="M52.551,60.593c-5.265-1.548-11.093-1.318-16.597,0.882
					c-10.781,4.308-18.049,14.962-21.328,25.742c-3.328,10.941-5.17,23.429-1.986,34.618c3.683,12.941,15.966,20.491,29.106,20.914
					c0.419,0.013,0.838,0.019,1.257,0.017c8.112-0.039,17.54-3.086,23.333-9.012c5.773-5.906,7.635-15.197,8.034-23.145
					c0.584-11.651-0.923-24.343-5.804-34.998C65.415,68.732,59.97,62.775,52.551,60.593z"/>
				<g>
					<path style="fill:#C3A4E0;" d="M15.698,90.019c3.392-10.78,10.912-21.434,22.067-25.741c5.695-2.199,11.725-2.43,17.172-0.882
						c3.487,0.991,6.547,2.767,9.16,5.048c-3.02-3.632-6.895-6.484-11.545-7.851c-5.265-1.548-11.093-1.318-16.597,0.882
						c-10.781,4.308-18.049,14.962-21.328,25.742c-3.328,10.941-5.17,23.429-1.986,34.618c0.299,1.049,0.673,2.049,1.08,3.026
						c-0.023-0.076-0.055-0.147-0.077-0.223C10.348,113.448,12.254,100.96,15.698,90.019z"/>
				</g>
				<path style="fill:#4C1172;" d="M42.847,143.004c-0.369,0-0.739-0.006-1.109-0.018c-14.08-0.454-25.866-8.928-29.327-21.086
					c-2.754-9.674-2.086-21.366,1.986-34.752c3.755-12.343,11.78-22.023,21.468-25.893c5.405-2.161,11.355-2.475,16.752-0.89l0,0
					c6.875,2.022,12.616,7.402,16.165,15.148c5.65,12.335,6.286,25.9,5.825,35.109c-0.527,10.5-3.254,18.338-8.102,23.298
					c-5.352,5.476-14.577,9.041-23.502,9.083C42.952,143.004,42.9,143.004,42.847,143.004z M45.611,59.843
					c-3.229,0-6.488,0.622-9.569,1.853c-9.555,3.817-17.476,13.383-21.189,25.59c-4.045,13.297-4.712,24.899-1.984,34.484
					c3.404,11.96,15.013,20.295,28.886,20.741c0.417,0.014,0.829,0.019,1.248,0.018c8.804-0.043,17.897-3.551,23.165-8.941
					c4.698-4.806,7.453-12.755,7.966-22.99c0.649-12.942-1.405-25.332-5.782-34.886c-3.49-7.619-9.125-12.908-15.866-14.89
					C50.263,60.168,47.945,59.843,45.611,59.843z"/>
				<g>
					<path style="fill:#C3A4E0;" d="M68.566,75.612c-1.768-3.858-4.257-7.426-7.411-10.201c1.09,1.489,2.049,3.065,2.862,4.695
						c5.317,10.655,6.959,23.347,6.323,34.998c-0.434,7.947-2.462,17.239-8.752,23.145c-6.311,5.926-16.583,8.972-25.42,9.012
						c-0.456,0.002-0.913-0.004-1.369-0.017c-5.171-0.153-10.216-1.24-14.746-3.17c5.649,5.379,13.503,8.412,21.692,8.676
						c0.419,0.014,0.838,0.019,1.257,0.017c8.112-0.039,17.54-3.086,23.333-9.012c5.773-5.906,7.635-15.197,8.034-23.145
						C74.954,98.959,73.447,86.267,68.566,75.612z"/>
					<path style="fill:#C3A4E0;" d="M66.815,133.206c-1.077-0.608-2.426-0.711-3.583-0.273c-1.157,0.438-2.213,1.361-2.616,2.53
						c-0.238-0.141-0.529-0.152-0.806-0.157c-0.47-0.01-0.946-0.017-1.405,0.088c-1.088,0.249-2.017,1.185-2.241,2.279
						c-1.206-0.397-2.604-0.149-3.599,0.639c-0.995,0.788-1.557,2.092-1.447,3.357c4.219-0.682,8.024-2.657,11.76-4.733
						c0.382-0.212,0.765-0.426,1.123-0.678c0.727-0.511,1.338-1.166,1.943-1.816C66.303,134.056,66.545,133.658,66.815,133.206z"/>
				</g>
				<path style="fill:#C3A4E0;" d="M20.69,134.1c0.919-0.519,2.071-0.607,3.059-0.233c0.988,0.374,1.889,1.162,2.234,2.16
					c0.203-0.121,0.451-0.129,0.688-0.134c0.402-0.008,0.808-0.015,1.2,0.075c0.929,0.212,1.722,1.012,1.913,1.946
					c1.029-0.339,2.223-0.127,3.073,0.546c0.85,0.673,1.33,1.786,1.235,2.866c-3.602-0.583-6.851-2.268-10.041-4.041
					c-0.326-0.181-0.653-0.364-0.958-0.579c-0.62-0.436-1.142-0.996-1.659-1.551C21.127,134.826,20.92,134.486,20.69,134.1z"/>
			</g>
			<g>
				<g>
					<g>
						<g>
							<path style="fill:#FFE050;" d="M19.213,152.144c-0.841-0.173-1.556-0.801-1.796-1.686c-1.913-7.04,2.567-13.432,2.759-13.701
								c0.753-1.055,2.219-1.302,3.276-0.547c1.054,0.752,1.3,2.214,0.552,3.269c-0.055,0.08-3.372,4.899-2.055,9.747
								c0.34,1.252-0.399,2.542-1.65,2.882C19.932,152.208,19.561,152.215,19.213,152.144z"/>
						</g>
						<g>
							<path style="fill:#FFE050;" d="M19.213,152.144c0.349,0.071,0.719,0.064,1.086-0.036c1.252-0.34,1.991-1.63,1.65-2.882
								c-1.317-4.848,1.999-9.668,2.055-9.747c0.477-0.673,0.548-1.511,0.264-2.226c-0.824,0.582-1.498,1.373-1.999,2.252
								c-0.605,1.064-0.971,2.25-1.204,3.451c-0.208,1.068-0.315,2.16-0.248,3.246c0.077,1.254,0.382,2.515,0.168,3.752
								c-0.063,0.364-0.189,0.747-0.486,0.966c-0.213,0.157-0.485,0.207-0.748,0.227c-0.798,0.059-1.607-0.153-2.291-0.568
								C17.731,151.398,18.412,151.98,19.213,152.144z"/>
							<path style="fill:#FFE050;" d="M20.541,147.228c-0.168,0.037-0.336,0.074-0.507,0.087c-0.291,0.023-0.583-0.02-0.872-0.063
								c-0.508-0.076-1.031-0.158-1.472-0.42c0.083,0.228,0.247,0.419,0.436,0.569c0.189,0.151,0.404,0.266,0.618,0.38
								c0.155,0.083,0.311,0.166,0.477,0.223c0.354,0.123,0.737,0.127,1.111,0.109c0.299-0.015,0.596-0.043,0.892-0.084
								c0.064-0.009,0.131-0.02,0.181-0.059c0.056-0.044,0.083-0.114,0.107-0.181c0.09-0.25,0.198-0.537,0.148-0.807
								c-0.026-0.141-0.199-0.027-0.271,0.003c-0.127,0.054-0.258,0.097-0.391,0.134C20.847,147.161,20.694,147.195,20.541,147.228z
								"/>
							<path style="fill:#FFE050;" d="M19.44,143.746c-0.155-0.053-0.309-0.111-0.468-0.149c-0.369-0.09-0.767-0.079-1.11-0.243
								c0.076,0.211,0.221,0.39,0.381,0.547c0.454,0.447,1.034,0.746,1.629,0.971c0.596,0.226,1.214,0.385,1.816,0.593
								c0.155-0.387,0.266-0.792,0.333-1.204c0.004-0.028-0.002-0.07-0.027-0.087c-0.023-0.015-0.062-0.008-0.087-0.008
								c-0.091-0.001-0.182-0.003-0.274-0.007c-0.181-0.008-0.361-0.022-0.541-0.042c-0.18-0.021-0.36-0.047-0.539-0.08
								c-0.179-0.033-0.356-0.072-0.532-0.117c-0.175-0.045-0.349-0.096-0.52-0.153C19.48,143.76,19.46,143.753,19.44,143.746z"/>
							<path style="fill:#FFE050;" d="M22.721,141.706c-0.007,0.009,0.011,0.021,0.02,0.013c0.009-0.008,0.008-0.021,0.007-0.033
								c-0.032-0.216-0.163-0.403-0.304-0.569c-0.475-0.555-1.117-0.966-1.819-1.166c-0.182-0.052-0.368-0.089-0.555-0.123
								c-0.281-0.05-0.572-0.089-0.849-0.021c0.184,0.144,0.399,0.296,0.583,0.44c0.298,0.233,0.597,0.467,0.853,0.746
								c0.206,0.224,0.382,0.475,0.599,0.689s0.488,0.391,0.791,0.419C22.348,142.129,22.618,141.992,22.721,141.706z"/>
							<path style="fill:#FFE050;" d="M24.256,139.305c-0.204-0.406-0.427-0.805-0.707-1.162s-0.623-0.672-1.028-0.878
								c-0.219-0.111-0.454-0.189-0.69-0.257c-0.36-0.104-0.734-0.189-1.106-0.149c0.005,0.102,0.063,0.2,0.128,0.279
								c0.611,0.746,1.52,1.199,2.142,1.936c0.086,0.101,0.167,0.209,0.217,0.332c0.042,0.103,0.062,0.215,0.075,0.326
								c0.029,0.248,0.028,0.5-0.005,0.747c-0.007,0.052-0.013,0.112,0.023,0.15c0.057,0.061,0.104,0.004,0.164-0.053
								c0.127-0.12,0.196-0.302,0.283-0.454c0.139-0.243,0.303-0.439,0.442-0.682c0.018-0.031,0.089-0.074,0.083-0.109
								S24.286,139.285,24.256,139.305z"/>
						</g>
						<g>
							<path style="fill:#9E8002;" d="M19.681,152.429c-0.173,0-0.345-0.018-0.516-0.053l0,0c-0.963-0.198-1.721-0.909-1.978-1.856
								c-1.943-7.151,2.601-13.629,2.795-13.902c0.828-1.16,2.445-1.432,3.607-0.602c1.157,0.826,1.43,2.441,0.608,3.599
								c-0.134,0.194-3.29,4.869-2.019,9.548c0.373,1.376-0.441,2.8-1.817,3.174C20.136,152.399,19.909,152.429,19.681,152.429z
								 M19.26,151.911c0.325,0.067,0.652,0.057,0.977-0.031c1.123-0.305,1.788-1.468,1.483-2.591
								c-1.329-4.888,1.947-9.739,2.087-9.943c0.673-0.95,0.45-2.268-0.495-2.943c-0.945-0.676-2.268-0.455-2.945,0.493
								c-0.188,0.264-4.607,6.565-2.723,13.501C17.857,151.169,18.474,151.749,19.26,151.911L19.26,151.911z"/>
						</g>
						<g>
							<path style="fill:#9E8002;" d="M22.845,141.74c-0.041,0-0.081-0.021-0.103-0.059c-1.158-2.017-3.479-1.796-3.504-1.797
								c-0.067,0.016-0.123-0.041-0.13-0.106c-0.007-0.065,0.04-0.123,0.106-0.13c0.018-0.006,2.5-0.236,3.734,1.914
								c0.032,0.058,0.013,0.13-0.044,0.162C22.886,141.736,22.865,141.74,22.845,141.74z"/>
							<path style="fill:#9E8002;" d="M21.965,144.322L21.965,144.322c-1.497-0.016-3.947-0.796-4.05-0.829
								c-0.062-0.02-0.097-0.087-0.077-0.149c0.021-0.062,0.085-0.096,0.149-0.077c0.025,0.008,2.52,0.802,3.979,0.818
								c0.066,0.001,0.119,0.055,0.118,0.12C22.083,144.27,22.031,144.322,21.965,144.322z"/>
							<path style="fill:#9E8002;" d="M20.014,147.419c-1.138,0-2.217-0.429-2.286-0.457c-0.061-0.025-0.09-0.095-0.066-0.155
								c0.026-0.06,0.094-0.089,0.155-0.066c0.025,0.009,2.48,0.987,3.794-0.016c0.053-0.039,0.127-0.031,0.167,0.022
								c0.04,0.053,0.03,0.127-0.022,0.167C21.257,147.294,20.627,147.419,20.014,147.419z"/>
							<path style="fill:#9E8002;" d="M19.53,150.547c-0.789,0-1.374-0.243-1.385-0.248c-0.06-0.026-0.088-0.095-0.063-0.156
								c0.027-0.06,0.098-0.088,0.156-0.063c0.087,0.037,2.139,0.886,3.679-0.847c0.045-0.049,0.12-0.053,0.168-0.01
								c0.049,0.044,0.054,0.119,0.01,0.168C21.275,150.313,20.304,150.547,19.53,150.547z"/>
							<path style="fill:#9E8002;" d="M24.172,139.317c-0.047,0-0.092-0.028-0.11-0.075c-0.988-2.481-3.314-2.268-3.339-2.269
								c-0.063,0.015-0.123-0.041-0.13-0.106c-0.007-0.065,0.04-0.123,0.106-0.13c0.026-0.007,2.53-0.228,3.584,2.418
								c0.024,0.06-0.006,0.13-0.067,0.154C24.201,139.314,24.187,139.317,24.172,139.317z"/>
						</g>
					</g>
					<path style="opacity:0.57;fill:#FFFFFF;" d="M19.667,139.118c0,0-3.231,4.548-1.741,9.357
						C17.927,148.475,18.039,143.045,19.667,139.118z"/>
				</g>
				<g>
					<g>
						<g>
							<path style="fill:#FFE050;" d="M27.631,153.871c0.776,0.159,1.612-0.115,2.138-0.778c4.183-5.28,2.704-12.335,2.64-12.633
								c-0.256-1.17-1.411-1.912-2.582-1.656c-1.168,0.255-1.909,1.406-1.657,2.574c0.018,0.087,1.081,5.385-1.8,9.021
								c-0.744,0.939-0.586,2.303,0.353,3.046C26.997,153.664,27.309,153.805,27.631,153.871z"/>
						</g>
						<g>
							<path style="fill:#FFE050;" d="M27.631,153.871c-0.322-0.066-0.634-0.207-0.909-0.425c-0.939-0.743-1.097-2.108-0.353-3.046
								c2.881-3.636,1.818-8.933,1.8-9.021c-0.16-0.745,0.084-1.482,0.585-1.985c0.488,0.793,0.773,1.71,0.878,2.639
								c0.127,1.123,0.006,2.263-0.233,3.367c-0.212,0.982-0.518,1.948-0.969,2.845c-0.521,1.036-1.239,1.996-1.507,3.124
								c-0.079,0.332-0.111,0.702,0.062,0.997c0.124,0.21,0.336,0.352,0.552,0.465c0.656,0.34,1.42,0.454,2.151,0.351
								C29.16,153.777,28.371,154.023,27.631,153.871z"/>
							<path style="fill:#FFE050;" d="M28.291,149.216c0.129,0.092,0.258,0.185,0.399,0.259c0.239,0.126,0.502,0.195,0.764,0.263
								c0.459,0.12,0.932,0.241,1.402,0.178c-0.153,0.163-0.362,0.265-0.577,0.325c-0.215,0.059-0.44,0.078-0.663,0.097
								c-0.162,0.014-0.324,0.027-0.486,0.016c-0.345-0.024-0.672-0.16-0.982-0.311c-0.248-0.121-0.491-0.253-0.727-0.396
								c-0.051-0.031-0.104-0.064-0.132-0.116c-0.032-0.057-0.029-0.127-0.025-0.193c0.015-0.245,0.027-0.528,0.167-0.739
								c0.073-0.11,0.179,0.049,0.229,0.102c0.088,0.092,0.184,0.176,0.283,0.256C28.056,149.047,28.174,149.131,28.291,149.216z"/>
							<path style="fill:#FFE050;" d="M30.492,146.66c0.151,0.012,0.302,0.018,0.452,0.043c0.346,0.058,0.68,0.212,1.031,0.197
								c-0.141,0.152-0.329,0.25-0.522,0.326c-0.548,0.214-1.149,0.257-1.736,0.232c-0.588-0.025-1.17-0.115-1.757-0.157
								c0.01-0.385,0.062-0.769,0.155-1.143c0.006-0.025,0.027-0.059,0.055-0.064c0.025-0.005,0.055,0.016,0.077,0.025
								c0.078,0.033,0.156,0.064,0.235,0.093c0.156,0.059,0.315,0.113,0.475,0.161c0.161,0.048,0.323,0.091,0.486,0.128
								c0.164,0.037,0.328,0.069,0.494,0.094c0.165,0.025,0.331,0.046,0.497,0.06C30.453,146.657,30.472,146.659,30.492,146.66z"/>
							<path style="fill:#FFE050;" d="M28.448,143.735c0.003,0.011-0.017,0.013-0.022,0.003c-0.005-0.01,0.001-0.021,0.007-0.031
								c0.105-0.171,0.285-0.283,0.465-0.372c0.605-0.299,1.299-0.414,1.968-0.328c0.174,0.022,0.345,0.058,0.516,0.098
								c0.256,0.06,0.518,0.132,0.728,0.291c-0.208,0.055-0.446,0.106-0.654,0.161c-0.337,0.089-0.677,0.179-0.995,0.323
								c-0.256,0.116-0.497,0.265-0.759,0.367c-0.262,0.102-0.556,0.155-0.824,0.068C28.611,144.23,28.432,144.016,28.448,143.735z"
								/>
							<path style="fill:#FFE050;" d="M28.018,141.139c0.321-0.27,0.655-0.528,1.023-0.729c0.368-0.201,0.773-0.344,1.192-0.371
								c0.227-0.015,0.454,0.005,0.679,0.032c0.343,0.042,0.692,0.106,0.993,0.275c-0.041,0.085-0.126,0.147-0.21,0.19
								c-0.79,0.411-1.726,0.466-2.523,0.864c-0.11,0.055-0.218,0.117-0.305,0.203c-0.074,0.072-0.131,0.16-0.182,0.249
								c-0.115,0.2-0.205,0.414-0.267,0.636c-0.013,0.047-0.03,0.1-0.074,0.119c-0.07,0.031-0.089-0.034-0.12-0.105
								c-0.065-0.148-0.056-0.328-0.075-0.488c-0.03-0.257-0.097-0.483-0.128-0.739c-0.004-0.033-0.048-0.095-0.031-0.123
								C28.008,141.126,28,141.111,28.018,141.139z"/>
						</g>
						<g>
							<path style="fill:#9E8002;" d="M28.072,154.153c-0.161,0-0.325-0.016-0.488-0.049l0,0c-0.37-0.076-0.71-0.235-1.009-0.471
								c-0.504-0.4-0.822-0.971-0.896-1.61c-0.073-0.638,0.106-1.267,0.505-1.771c2.786-3.517,1.797-8.611,1.753-8.826
								c-0.277-1.29,0.547-2.572,1.84-2.854c0.631-0.14,1.272-0.022,1.813,0.326c0.541,0.347,0.915,0.884,1.051,1.511
								c0.066,0.303,1.566,7.465-2.685,12.831C29.49,153.826,28.798,154.153,28.072,154.153z M27.678,153.638
								c0.721,0.149,1.449-0.119,1.904-0.693c4.113-5.192,2.658-12.141,2.594-12.434c-0.111-0.505-0.409-0.935-0.843-1.213
								c-0.434-0.279-0.952-0.374-1.455-0.262c-1.038,0.226-1.699,1.255-1.477,2.292c0.046,0.227,1.076,5.53-1.845,9.219
								c-0.321,0.404-0.465,0.909-0.405,1.421c0.059,0.513,0.315,0.971,0.719,1.291C27.11,153.451,27.383,153.578,27.678,153.638
								L27.678,153.638z"/>
						</g>
						<g>
							<path style="fill:#9E8002;" d="M28.374,143.738c-0.036,0-0.072-0.017-0.095-0.047c-0.04-0.053-0.029-0.127,0.023-0.166
								c1.834-1.379,3.856-0.277,3.875-0.268c0.057,0.033,0.078,0.105,0.046,0.161c-0.033,0.057-0.106,0.079-0.161,0.046
								c-0.02-0.011-1.907-1.037-3.617,0.25C28.424,143.73,28.399,143.738,28.374,143.738z"/>
							<path style="fill:#9E8002;" d="M31.889,147.009c-0.004,0-0.007,0-0.011-0.001c-0.1-0.009-2.466-0.238-3.741-0.768
								c-0.06-0.025-0.089-0.095-0.064-0.155c0.024-0.06,0.094-0.091,0.155-0.064c1.242,0.517,3.649,0.749,3.673,0.752
								c0.065,0.005,0.113,0.064,0.107,0.129C32.002,146.962,31.95,147.009,31.889,147.009z"/>
							<path style="fill:#9E8002;" d="M30.778,150.02c-0.001,0-0.002,0-0.002,0c-0.106-0.002-2.594-0.066-3.409-1.508
								c-0.032-0.057-0.013-0.13,0.045-0.161c0.058-0.035,0.13-0.013,0.161,0.045c0.75,1.326,3.182,1.388,3.206,1.388
								c0.066,0.001,0.118,0.056,0.117,0.121C30.896,149.968,30.843,150.02,30.778,150.02z"/>
							<path style="fill:#9E8002;" d="M29.208,152.702c-0.023,0-2.3-0.023-3.031-2.213c-0.021-0.063,0.012-0.13,0.074-0.15
								c0.069-0.022,0.131,0.013,0.15,0.074c0.676,2.025,2.72,2.051,2.806,2.051c0.066,0,0.119,0.053,0.119,0.119
								C29.327,152.649,29.274,152.702,29.208,152.702z"/>
							<path style="fill:#9E8002;" d="M28.128,141.197c-0.031,0-0.06-0.011-0.083-0.034c-0.046-0.047-0.047-0.122-0.001-0.168
								c1.866-1.869,3.912-0.762,3.933-0.751c0.057,0.032,0.078,0.104,0.046,0.161c-0.033,0.057-0.103,0.078-0.161,0.046
								c-0.078-0.044-1.915-1.03-3.649,0.71C28.19,141.185,28.159,141.197,28.128,141.197z"/>
						</g>
					</g>
					<path style="opacity:0.57;fill:#FFFFFF;" d="M31.981,142.649c0,0,1.089,5.035-1.924,8.575
						C30.057,151.224,31.936,146.574,31.981,142.649z"/>
				</g>
				<g>
					<g>
						<g>
							<path style="fill:#FFE050;" d="M23.907,153.588c-0.85-0.116-1.606-0.695-1.905-1.562c-2.38-6.896,1.662-13.574,1.835-13.855
								c0.681-1.104,2.127-1.447,3.232-0.765c1.102,0.679,1.446,2.122,0.77,3.225c-0.05,0.083-3.036,5.114-1.397,9.863
								c0.423,1.226-0.228,2.563-1.454,2.986C24.629,153.604,24.259,153.636,23.907,153.588z"/>
						</g>
						<g>
							<path style="fill:#FFE050;" d="M23.907,153.588c0.353,0.048,0.722,0.016,1.081-0.108c1.226-0.423,1.877-1.76,1.454-2.986
								c-1.639-4.749,1.347-9.78,1.397-9.863c0.431-0.704,0.445-1.545,0.115-2.238c-0.783,0.636-1.403,1.47-1.843,2.381
								c-0.532,1.102-0.818,2.31-0.97,3.524c-0.136,1.079-0.169,2.176-0.03,3.255c0.16,1.246,0.55,2.484,0.419,3.733
								c-0.039,0.368-0.138,0.758-0.421,0.996c-0.202,0.171-0.47,0.239-0.731,0.276c-0.793,0.112-1.614-0.045-2.324-0.413
								C22.378,152.943,23.097,153.477,23.907,153.588z"/>
							<path style="fill:#FFE050;" d="M24.903,148.594c-0.165,0.048-0.33,0.096-0.5,0.121c-0.289,0.043-0.583,0.019-0.875-0.005
								c-0.512-0.042-1.039-0.088-1.497-0.321c0.098,0.222,0.274,0.401,0.473,0.539c0.199,0.138,0.421,0.238,0.642,0.337
								c0.16,0.072,0.321,0.145,0.491,0.191c0.361,0.099,0.743,0.078,1.115,0.034c0.297-0.035,0.592-0.082,0.885-0.143
								c0.063-0.013,0.129-0.028,0.177-0.071c0.053-0.047,0.075-0.12,0.095-0.188c0.073-0.255,0.161-0.549,0.094-0.815
								c-0.035-0.139-0.201-0.014-0.271,0.021c-0.123,0.063-0.251,0.114-0.381,0.16C25.204,148.506,25.053,148.55,24.903,148.594z"
								/>
							<path style="fill:#FFE050;" d="M23.571,145.193c-0.158-0.042-0.316-0.09-0.477-0.118c-0.375-0.065-0.771-0.027-1.124-0.168
								c0.089,0.205,0.247,0.374,0.416,0.52c0.483,0.415,1.081,0.675,1.691,0.86c0.609,0.185,1.237,0.302,1.852,0.47
								c0.128-0.397,0.213-0.808,0.251-1.223c0.003-0.028-0.006-0.069-0.033-0.085c-0.024-0.014-0.062-0.004-0.088-0.003
								c-0.091,0.005-0.182,0.009-0.274,0.011c-0.181,0.004-0.362,0.002-0.542-0.006c-0.182-0.008-0.363-0.023-0.543-0.044
								c-0.181-0.021-0.36-0.048-0.539-0.081c-0.178-0.033-0.354-0.072-0.529-0.117C23.611,145.204,23.591,145.199,23.571,145.193z"
								/>
							<path style="fill:#FFE050;" d="M26.708,142.938c-0.006,0.01,0.013,0.02,0.021,0.011c0.008-0.008,0.007-0.022,0.004-0.034
								c-0.046-0.213-0.189-0.391-0.342-0.547c-0.511-0.522-1.179-0.889-1.894-1.041c-0.185-0.039-0.374-0.064-0.562-0.085
								c-0.283-0.031-0.577-0.051-0.849,0.036c0.193,0.131,0.418,0.269,0.611,0.4c0.313,0.212,0.627,0.426,0.901,0.687
								c0.22,0.21,0.413,0.449,0.644,0.647c0.231,0.198,0.513,0.358,0.817,0.365C26.364,143.385,26.624,143.23,26.708,142.938z"/>
							<path style="fill:#FFE050;" d="M28.079,140.44c-0.231-0.391-0.48-0.775-0.784-1.112c-0.304-0.337-0.667-0.629-1.085-0.807
								c-0.226-0.096-0.465-0.158-0.706-0.211c-0.366-0.08-0.745-0.14-1.114-0.075c0.011,0.102,0.076,0.195,0.146,0.27
								c0.66,0.704,1.597,1.095,2.267,1.788c0.092,0.095,0.18,0.198,0.239,0.317c0.049,0.1,0.076,0.21,0.097,0.32
								c0.046,0.245,0.061,0.497,0.045,0.746c-0.003,0.052-0.006,0.113,0.033,0.149c0.061,0.057,0.104-0.003,0.16-0.064
								c0.119-0.128,0.175-0.314,0.252-0.472c0.123-0.252,0.273-0.458,0.396-0.71c0.016-0.032,0.084-0.08,0.076-0.115
								C28.094,140.429,28.107,140.418,28.079,140.44z"/>
						</g>
						<g>
							<path style="fill:#9E8002;" d="M24.225,153.847c-0.116,0-0.234-0.008-0.351-0.024l0,0c-0.973-0.132-1.777-0.79-2.098-1.719
								c-2.418-7.006,1.682-13.774,1.857-14.058c0.751-1.214,2.348-1.591,3.558-0.843c1.21,0.747,1.591,2.34,0.849,3.551
								c-0.029,0.047-2.972,5.037-1.375,9.661c0.225,0.653,0.183,1.355-0.12,1.976c-0.302,0.622-0.828,1.087-1.482,1.313
								C24.791,153.799,24.51,153.847,24.225,153.847z M25.839,137.294c-0.709,0-1.401,0.355-1.8,1.001
								c-0.171,0.277-4.158,6.859-1.813,13.654c0.263,0.759,0.918,1.296,1.712,1.404h0.001c0.329,0.045,0.657,0.013,0.971-0.096
								c0.533-0.184,0.963-0.564,1.21-1.072c0.247-0.507,0.281-1.08,0.097-1.612c-1.668-4.833,1.291-9.852,1.418-10.064
								c0.607-0.991,0.296-2.29-0.691-2.9C26.599,137.395,26.216,137.294,25.839,137.294z"/>
						</g>
						<g>
							<path style="fill:#9E8002;" d="M26.826,142.965c-0.038,0-0.076-0.019-0.098-0.053c-1.291-1.936-3.593-1.561-3.616-1.558
								c-0.063,0.007-0.126-0.033-0.137-0.096c-0.011-0.065,0.031-0.126,0.097-0.137c0.025-0.004,2.477-0.404,3.854,1.66
								c0.037,0.055,0.022,0.128-0.032,0.164C26.871,142.958,26.849,142.965,26.826,142.965z"/>
							<path style="fill:#9E8002;" d="M25.829,145.607c-1.505,0-3.698-0.539-3.797-0.564c-0.063-0.016-0.102-0.08-0.086-0.144
								c0.016-0.063,0.077-0.103,0.144-0.086c0.026,0.005,2.564,0.642,4.025,0.549c0.002,0,0.005,0,0.007,0
								c0.063,0,0.115,0.049,0.119,0.112c0.004,0.065-0.046,0.122-0.112,0.125C26.032,145.605,25.931,145.607,25.829,145.607z"/>
							<path style="fill:#9E8002;" d="M24.063,148.83c-1.012,0-1.921-0.293-1.985-0.314c-0.062-0.021-0.097-0.088-0.076-0.15
								c0.02-0.062,0.086-0.096,0.15-0.076c0.024,0.009,2.539,0.818,3.784-0.269c0.048-0.046,0.124-0.039,0.167,0.011
								c0.044,0.049,0.038,0.124-0.011,0.167C25.537,148.685,24.775,148.83,24.063,148.83z"/>
							<path style="fill:#9E8002;" d="M23.853,151.982c-0.654,0-1.125-0.16-1.135-0.163c-0.062-0.022-0.095-0.09-0.073-0.151
								c0.022-0.062,0.089-0.095,0.151-0.073c0.091,0.032,2.195,0.74,3.614-1.092c0.039-0.053,0.114-0.062,0.166-0.021
								c0.052,0.04,0.061,0.115,0.021,0.166C25.753,151.737,24.662,151.982,23.853,151.982z"/>
							<path style="fill:#9E8002;" d="M27.987,140.457c-0.045,0-0.086-0.025-0.107-0.068c-1.151-2.403-3.392-2.057-3.485-2.04
								c-0.078,0.006-0.126-0.032-0.137-0.096c-0.011-0.065,0.033-0.126,0.096-0.137c0.028-0.005,2.509-0.401,3.739,2.172
								c0.029,0.058,0.004,0.13-0.056,0.158C28.022,140.453,28.005,140.457,27.987,140.457z"/>
						</g>
					</g>
					<path style="opacity:0.57;fill:#FFFFFF;" d="M23.488,140.561c0,0-2.919,4.754-1.11,9.453
						C22.378,150.014,22.126,144.587,23.488,140.561z"/>
				</g>
			</g>
			<g>
				<g>
					<g>
						<g>
							<path style="fill:#FFE050;" d="M66.732,152.055c0.883-0.181,1.634-0.842,1.886-1.771c2.009-7.395-2.697-14.109-2.898-14.391
								c-0.791-1.109-2.331-1.367-3.441-0.575c-1.107,0.79-1.366,2.325-0.58,3.434c0.058,0.083,3.542,5.146,2.158,10.238
								c-0.357,1.315,0.419,2.67,1.734,3.027C65.977,152.123,66.366,152.13,66.732,152.055z"/>
						</g>
						<g>
							<path style="fill:#FFE050;" d="M66.732,152.055c-0.366,0.075-0.755,0.067-1.141-0.037c-1.315-0.357-2.091-1.713-1.734-3.027
								c1.384-5.092-2.1-10.155-2.158-10.238c-0.501-0.707-0.576-1.588-0.278-2.338c0.866,0.611,1.574,1.442,2.099,2.366
								c0.636,1.117,1.02,2.363,1.265,3.625c0.218,1.122,0.33,2.269,0.261,3.409c-0.08,1.317-0.402,2.641-0.176,3.941
								c0.066,0.382,0.198,0.784,0.511,1.014c0.223,0.164,0.509,0.218,0.786,0.238c0.839,0.062,1.688-0.161,2.406-0.596
								C68.289,151.272,67.573,151.883,66.732,152.055z"/>
							<path style="fill:#FFE050;" d="M65.337,146.892c0.176,0.039,0.353,0.077,0.533,0.092c0.306,0.025,0.613-0.021,0.916-0.066
								c0.534-0.08,1.082-0.165,1.546-0.441c-0.087,0.239-0.259,0.439-0.458,0.598c-0.199,0.158-0.425,0.279-0.649,0.399
								c-0.163,0.087-0.327,0.174-0.501,0.235c-0.371,0.129-0.774,0.134-1.166,0.114c-0.314-0.015-0.627-0.045-0.937-0.088
								c-0.067-0.009-0.137-0.021-0.19-0.062c-0.059-0.046-0.087-0.12-0.113-0.191c-0.094-0.262-0.208-0.564-0.156-0.848
								c0.027-0.148,0.209-0.029,0.285,0.004c0.133,0.057,0.271,0.102,0.41,0.141C65.016,146.821,65.176,146.857,65.337,146.892z"/>
							<path style="fill:#FFE050;" d="M66.494,143.234c0.163-0.056,0.325-0.116,0.492-0.157c0.388-0.095,0.806-0.083,1.166-0.255
								c-0.079,0.221-0.232,0.409-0.4,0.574c-0.477,0.469-1.086,0.783-1.711,1.02c-0.626,0.237-1.275,0.404-1.908,0.622
								c-0.162-0.407-0.28-0.832-0.35-1.264c-0.005-0.029,0.002-0.073,0.028-0.091c0.024-0.016,0.065-0.009,0.092-0.009
								c0.096-0.001,0.192-0.003,0.288-0.008c0.19-0.008,0.379-0.023,0.568-0.045c0.189-0.021,0.378-0.049,0.566-0.084
								c0.188-0.035,0.374-0.076,0.559-0.123c0.184-0.047,0.366-0.101,0.547-0.16C66.452,143.248,66.473,143.241,66.494,143.234z"/>
							<path style="fill:#FFE050;" d="M63.047,141.091c0.007,0.01-0.012,0.021-0.021,0.014c-0.009-0.008-0.009-0.023-0.007-0.035
								c0.033-0.226,0.171-0.423,0.32-0.597c0.499-0.583,1.173-1.015,1.911-1.224c0.192-0.054,0.387-0.094,0.583-0.129
								c0.295-0.052,0.601-0.094,0.892-0.022c-0.193,0.151-0.419,0.311-0.612,0.462c-0.313,0.245-0.627,0.491-0.896,0.783
								c-0.216,0.235-0.401,0.499-0.629,0.723c-0.228,0.224-0.512,0.411-0.831,0.441S63.156,141.392,63.047,141.091z"/>
							<path style="fill:#FFE050;" d="M61.435,138.569c0.215-0.426,0.448-0.845,0.743-1.221c0.295-0.375,0.655-0.706,1.08-0.922
								c0.23-0.117,0.477-0.198,0.725-0.27c0.378-0.11,0.771-0.199,1.162-0.157c-0.005,0.107-0.066,0.21-0.134,0.293
								c-0.642,0.784-1.596,1.26-2.25,2.033c-0.09,0.107-0.175,0.22-0.228,0.349c-0.045,0.109-0.065,0.226-0.079,0.342
								c-0.031,0.261-0.029,0.525,0.005,0.785c0.007,0.055,0.014,0.118-0.024,0.158c-0.059,0.064-0.109,0.004-0.172-0.056
								c-0.134-0.126-0.206-0.317-0.297-0.476c-0.146-0.255-0.318-0.461-0.465-0.716c-0.019-0.033-0.093-0.078-0.088-0.115
								C61.418,138.56,61.403,138.548,61.435,138.569z"/>
						</g>
						<g>
							<path style="fill:#9E8002;" d="M66.244,152.354c-0.242,0-0.484-0.033-0.719-0.096c-0.7-0.19-1.284-0.641-1.645-1.271
								c-0.36-0.63-0.455-1.362-0.263-2.061c1.354-4.985-2.088-9.981-2.122-10.031c-0.863-1.216-0.576-2.913,0.64-3.781
								c0.59-0.421,1.31-0.588,2.025-0.469c0.715,0.121,1.341,0.511,1.763,1.102c0.204,0.286,4.976,7.092,2.935,14.603
								c-0.27,0.994-1.066,1.741-2.076,1.949l0,0C66.606,152.336,66.425,152.354,66.244,152.354z M63.708,135.107
								c-0.457,0-0.903,0.142-1.283,0.414c-0.993,0.708-1.226,2.093-0.522,3.087c0.037,0.053,3.611,5.241,2.195,10.448
								c-0.155,0.57-0.078,1.169,0.216,1.683c0.294,0.514,0.771,0.882,1.343,1.038c0.334,0.091,0.689,0.102,1.025,0.034l0,0
								c0.825-0.171,1.475-0.78,1.696-1.593c1.979-7.285-2.663-13.903-2.861-14.181c-0.343-0.482-0.854-0.801-1.438-0.899
								C63.955,135.118,63.831,135.107,63.708,135.107z"/>
						</g>
						<g>
							<path style="fill:#9E8002;" d="M62.917,141.127c-0.021,0-0.043-0.005-0.062-0.016c-0.059-0.034-0.081-0.11-0.046-0.171
								c1.298-2.261,3.896-2.012,3.923-2.011c0.069,0.007,0.118,0.069,0.111,0.137c-0.007,0.069-0.059,0.117-0.137,0.111
								c-0.028-0.007-2.465-0.231-3.679,1.887C63.003,141.105,62.96,141.127,62.917,141.127z"/>
							<path style="fill:#9E8002;" d="M63.841,143.839c-0.069,0-0.124-0.055-0.124-0.123c-0.001-0.069,0.054-0.125,0.123-0.125
								c1.533-0.017,4.154-0.851,4.18-0.859c0.067-0.02,0.135,0.015,0.157,0.081c0.021,0.066-0.015,0.135-0.081,0.157
								C67.987,143.004,65.412,143.822,63.841,143.839L63.841,143.839z"/>
							<path style="fill:#9E8002;" d="M65.891,147.092c-0.644,0-1.306-0.132-1.829-0.531c-0.055-0.042-0.065-0.121-0.023-0.175
								c0.044-0.054,0.121-0.063,0.175-0.023c1.38,1.055,3.959,0.028,3.984,0.017c0.067-0.021,0.137,0.005,0.163,0.069
								c0.025,0.064-0.005,0.137-0.069,0.163C68.219,146.64,67.086,147.092,65.891,147.092z"/>
							<path style="fill:#9E8002;" d="M66.398,150.378c-0.814,0-1.832-0.246-2.693-1.214c-0.046-0.051-0.042-0.13,0.01-0.175
								c0.05-0.046,0.131-0.042,0.175,0.01c1.619,1.82,3.773,0.927,3.865,0.889c0.061-0.026,0.136,0.002,0.164,0.066
								c0.027,0.063-0.003,0.136-0.066,0.164C67.842,150.122,67.228,150.378,66.398,150.378z"/>
							<path style="fill:#9E8002;" d="M61.523,138.581c-0.016,0-0.031-0.003-0.047-0.008c-0.064-0.026-0.095-0.098-0.069-0.162
								c1.107-2.779,3.736-2.542,3.765-2.539c0.069,0.007,0.118,0.069,0.111,0.137c-0.007,0.069-0.072,0.113-0.137,0.111
								c-0.099-0.011-2.47-0.218-3.507,2.383C61.62,138.551,61.572,138.581,61.523,138.581z"/>
						</g>
					</g>
					<path style="opacity:0.57;fill:#FFFFFF;" d="M66.254,138.373c0,0,3.394,4.777,1.828,9.828
						C68.083,148.202,67.965,142.497,66.254,138.373z"/>
				</g>
				<g>
					<g>
						<g>
							<path style="fill:#FFE050;" d="M57.889,153.869c-0.815,0.167-1.693-0.12-2.245-0.817c-4.394-5.546-2.841-12.957-2.773-13.27
								c0.268-1.229,1.482-2.008,2.712-1.739c1.227,0.268,2.005,1.477,1.741,2.704c-0.019,0.092-1.135,5.656,1.891,9.475
								c0.781,0.986,0.615,2.419-0.371,3.2C58.555,153.652,58.228,153.8,57.889,153.869z"/>
						</g>
						<g>
							<path style="fill:#FFE050;" d="M57.889,153.869c0.338-0.069,0.666-0.217,0.955-0.447c0.986-0.781,1.152-2.214,0.371-3.2
								c-3.026-3.82-1.91-9.383-1.891-9.476c0.168-0.782-0.089-1.557-0.614-2.085c-0.513,0.834-0.812,1.796-0.922,2.772
								c-0.133,1.18-0.006,2.377,0.244,3.537c0.223,1.032,0.544,2.046,1.018,2.989c0.547,1.089,1.301,2.096,1.582,3.282
								c0.083,0.349,0.117,0.738-0.065,1.047c-0.13,0.221-0.353,0.37-0.58,0.488c-0.689,0.357-1.491,0.477-2.259,0.369
								C56.283,153.771,57.113,154.029,57.889,153.869z"/>
							<path style="fill:#FFE050;" d="M57.196,148.979c-0.135,0.097-0.271,0.194-0.419,0.272c-0.251,0.132-0.528,0.205-0.802,0.277
								c-0.482,0.126-0.979,0.253-1.473,0.187c0.161,0.172,0.38,0.279,0.606,0.341c0.227,0.062,0.462,0.082,0.696,0.102
								c0.17,0.014,0.341,0.029,0.511,0.017c0.362-0.025,0.705-0.168,1.032-0.327c0.261-0.127,0.515-0.266,0.764-0.416
								c0.053-0.032,0.109-0.067,0.139-0.122c0.034-0.06,0.03-0.134,0.026-0.203c-0.015-0.257-0.029-0.555-0.176-0.776
								c-0.077-0.116-0.188,0.051-0.241,0.107c-0.092,0.097-0.193,0.185-0.297,0.268C57.443,148.802,57.32,148.891,57.196,148.979z"
								/>
							<path style="fill:#FFE050;" d="M54.885,146.295c-0.159,0.012-0.318,0.02-0.475,0.046c-0.364,0.061-0.714,0.223-1.083,0.207
								c0.148,0.159,0.346,0.263,0.548,0.342c0.575,0.225,1.206,0.27,1.823,0.244c0.617-0.026,1.229-0.121,1.846-0.165
								c-0.01-0.404-0.065-0.808-0.163-1.2c-0.007-0.026-0.028-0.062-0.057-0.067c-0.026-0.005-0.058,0.016-0.081,0.026
								c-0.082,0.034-0.164,0.067-0.247,0.098c-0.164,0.062-0.33,0.118-0.498,0.169c-0.169,0.051-0.339,0.096-0.511,0.135
								c-0.172,0.039-0.345,0.072-0.519,0.099c-0.173,0.027-0.347,0.048-0.522,0.063C54.925,146.292,54.905,146.294,54.885,146.295z
								"/>
							<path style="fill:#FFE050;" d="M57.031,143.223c-0.003,0.011,0.018,0.014,0.023,0.004c0.005-0.01-0.001-0.022-0.007-0.032
								c-0.111-0.18-0.299-0.297-0.489-0.391c-0.636-0.314-1.365-0.435-2.067-0.344c-0.182,0.023-0.363,0.061-0.542,0.103
								c-0.269,0.063-0.544,0.139-0.765,0.305c0.218,0.058,0.469,0.112,0.687,0.17c0.354,0.094,0.711,0.189,1.045,0.339
								c0.269,0.121,0.522,0.278,0.797,0.385c0.275,0.107,0.584,0.163,0.865,0.072C56.86,143.743,57.048,143.518,57.031,143.223z"/>
							<path style="fill:#FFE050;" d="M57.483,140.496c-0.337-0.284-0.688-0.555-1.075-0.766s-0.812-0.361-1.252-0.39
								c-0.238-0.015-0.477,0.005-0.713,0.034c-0.36,0.044-0.726,0.111-1.043,0.289c0.043,0.089,0.132,0.154,0.22,0.2
								c0.83,0.432,1.813,0.489,2.65,0.908c0.115,0.058,0.229,0.123,0.32,0.214c0.077,0.076,0.137,0.168,0.191,0.262
								c0.121,0.21,0.215,0.435,0.281,0.668c0.014,0.049,0.031,0.105,0.078,0.126c0.074,0.033,0.094-0.036,0.126-0.11
								c0.068-0.155,0.059-0.344,0.079-0.513c0.031-0.27,0.102-0.507,0.134-0.777c0.004-0.035,0.051-0.1,0.033-0.13
								C57.494,140.482,57.502,140.467,57.483,140.496z"/>
						</g>
						<g>
							<path style="fill:#9E8002;" d="M57.425,154.166c-0.764,0-1.49-0.344-1.977-0.959c-4.457-5.627-2.89-13.159-2.821-13.477
								c0.299-1.363,1.649-2.224,3.009-1.931c1.357,0.297,2.224,1.643,1.932,3c-0.045,0.224-1.083,5.575,1.843,9.268
								c0.419,0.529,0.607,1.19,0.529,1.861c-0.077,0.671-0.412,1.271-0.941,1.69c-0.313,0.248-0.669,0.415-1.059,0.494l0,0
								C57.768,154.148,57.595,154.166,57.425,154.166z M55.097,138.24c-0.932,0-1.775,0.648-1.982,1.596
								c-0.067,0.308-1.587,7.618,2.725,13.062c0.478,0.604,1.243,0.881,1.999,0.728c0.313-0.065,0.598-0.199,0.85-0.398
								c0.425-0.336,0.693-0.818,0.755-1.356c0.063-0.538-0.088-1.069-0.425-1.494c-3.068-3.872-1.987-9.444-1.94-9.679
								c0.235-1.093-0.461-2.174-1.549-2.411C55.384,138.255,55.24,138.24,55.097,138.24z"/>
						</g>
						<g>
							<path style="fill:#9E8002;" d="M57.109,143.225c-0.026,0-0.053-0.007-0.075-0.025c-1.796-1.35-3.779-0.274-3.799-0.263
								c-0.058,0.035-0.135,0.013-0.169-0.048c-0.034-0.059-0.012-0.135,0.047-0.169c0.021-0.012,2.142-1.169,4.071,0.281
								c0.055,0.041,0.066,0.119,0.024,0.174C57.184,143.208,57.147,143.225,57.109,143.225z"/>
							<path style="fill:#9E8002;" d="M53.417,146.661c-0.064,0-0.118-0.048-0.124-0.112c-0.007-0.069,0.044-0.13,0.112-0.136
								c0.026-0.002,2.552-0.246,3.858-0.789c0.066-0.027,0.138,0.005,0.163,0.067c0.027,0.064-0.004,0.137-0.067,0.163
								c-1.34,0.559-3.825,0.798-3.93,0.808C53.425,146.661,53.421,146.661,53.417,146.661z"/>
							<path style="fill:#9E8002;" d="M54.584,149.824c-0.068,0-0.123-0.054-0.124-0.121c-0.002-0.07,0.053-0.126,0.121-0.127
								c0.026-0.001,2.582-0.068,3.369-1.458c0.034-0.06,0.111-0.08,0.17-0.047c0.06,0.033,0.082,0.11,0.047,0.17
								c-0.856,1.515-3.47,1.583-3.58,1.584C54.585,149.824,54.585,149.824,54.584,149.824z"/>
							<path style="fill:#9E8002;" d="M56.232,152.641L56.232,152.641c-0.069,0-0.124-0.056-0.124-0.124
								c0-0.069,0.056-0.124,0.124-0.124c0.091-0.001,2.239-0.027,2.947-2.154c0.021-0.065,0.089-0.098,0.159-0.079
								c0.065,0.022,0.1,0.093,0.079,0.159C58.65,152.616,56.259,152.641,56.232,152.641z"/>
							<path style="fill:#9E8002;" d="M57.367,140.557c-0.032,0-0.064-0.012-0.088-0.036c-1.82-1.826-3.751-0.79-3.833-0.746
								c-0.058,0.032-0.136,0.01-0.169-0.049c-0.033-0.06-0.012-0.135,0.048-0.169c0.021-0.011,2.173-1.174,4.13,0.788
								c0.049,0.049,0.049,0.128,0,0.176C57.431,140.545,57.398,140.557,57.367,140.557z"/>
						</g>
					</g>
					<path style="opacity:0.57;fill:#FFFFFF;" d="M53.32,142.082c0,0-1.144,5.289,2.021,9.008
						C55.342,151.089,53.368,146.205,53.32,142.082z"/>
				</g>
				<g>
					<g>
						<g>
							<path style="fill:#FFE050;" d="M61.801,153.572c0.893-0.122,1.687-0.73,2.001-1.641c2.5-7.243-1.745-14.258-1.927-14.553
								c-0.715-1.159-2.234-1.52-3.395-0.804c-1.157,0.714-1.519,2.229-0.809,3.388c0.052,0.087,3.189,5.372,1.467,10.36
								c-0.445,1.288,0.239,2.692,1.527,3.137C61.043,153.588,61.431,153.622,61.801,153.572z"/>
						</g>
						<g>
							<path style="fill:#FFE050;" d="M61.801,153.572c-0.37,0.05-0.758,0.017-1.136-0.114c-1.288-0.444-1.972-1.849-1.527-3.137
								c1.722-4.988-1.415-10.273-1.467-10.36c-0.453-0.739-0.468-1.623-0.12-2.351c0.823,0.668,1.474,1.544,1.936,2.501
								c0.559,1.157,0.859,2.426,1.019,3.702c0.143,1.134,0.178,2.286,0.032,3.419c-0.168,1.309-0.578,2.609-0.44,3.921
								c0.04,0.386,0.145,0.796,0.442,1.046c0.212,0.179,0.493,0.252,0.768,0.29c0.833,0.118,1.695-0.047,2.441-0.434
								C63.407,152.895,62.652,153.456,61.801,153.572z"/>
							<path style="fill:#FFE050;" d="M60.756,148.327c0.173,0.05,0.347,0.101,0.526,0.128c0.304,0.045,0.613,0.02,0.919-0.005
								c0.538-0.044,1.091-0.093,1.572-0.337c-0.103,0.233-0.288,0.421-0.497,0.566c-0.209,0.145-0.442,0.25-0.674,0.354
								c-0.168,0.076-0.338,0.152-0.516,0.201c-0.379,0.104-0.781,0.082-1.171,0.036c-0.312-0.036-0.622-0.087-0.929-0.151
								c-0.066-0.014-0.135-0.03-0.186-0.075c-0.056-0.05-0.079-0.126-0.099-0.198c-0.076-0.268-0.17-0.577-0.099-0.856
								c0.037-0.146,0.211-0.015,0.284,0.023c0.129,0.066,0.263,0.12,0.4,0.168C60.439,148.234,60.598,148.281,60.756,148.327z"/>
							<path style="fill:#FFE050;" d="M62.155,144.755c0.166-0.044,0.332-0.094,0.501-0.124c0.393-0.068,0.81-0.029,1.181-0.177
								c-0.094,0.216-0.259,0.393-0.437,0.546c-0.507,0.436-1.136,0.709-1.776,0.904c-0.64,0.195-1.3,0.318-1.945,0.493
								c-0.135-0.417-0.223-0.848-0.264-1.285c-0.003-0.029,0.007-0.073,0.035-0.089c0.025-0.014,0.065-0.004,0.092-0.003
								c0.096,0.006,0.192,0.009,0.287,0.012c0.19,0.004,0.38,0.002,0.57-0.007c0.191-0.009,0.381-0.024,0.57-0.046
								c0.189-0.022,0.378-0.05,0.566-0.085c0.187-0.035,0.372-0.076,0.556-0.123C62.112,144.766,62.133,144.76,62.155,144.755z"/>
							<path style="fill:#FFE050;" d="M58.859,142.385c0.007,0.01-0.013,0.021-0.022,0.012c-0.009-0.009-0.007-0.023-0.005-0.035
								c0.048-0.224,0.199-0.411,0.359-0.575c0.537-0.548,1.238-0.934,1.989-1.093c0.195-0.041,0.392-0.068,0.59-0.089
								c0.298-0.033,0.606-0.053,0.891,0.038c-0.203,0.137-0.439,0.282-0.641,0.42c-0.329,0.223-0.659,0.448-0.946,0.722
								c-0.231,0.22-0.434,0.471-0.676,0.68c-0.243,0.208-0.539,0.376-0.858,0.384C59.22,142.855,58.947,142.693,58.859,142.385z"/>
							<path style="fill:#FFE050;" d="M57.42,139.761c0.243-0.411,0.504-0.814,0.823-1.168c0.319-0.354,0.7-0.661,1.139-0.847
								c0.238-0.101,0.489-0.166,0.741-0.221c0.384-0.084,0.782-0.147,1.17-0.079c-0.012,0.107-0.08,0.205-0.153,0.283
								c-0.693,0.739-1.677,1.15-2.382,1.878c-0.097,0.1-0.189,0.208-0.251,0.333c-0.052,0.105-0.08,0.221-0.102,0.336
								c-0.048,0.258-0.064,0.522-0.047,0.783c0.004,0.055,0.006,0.118-0.035,0.156c-0.064,0.06-0.109-0.003-0.168-0.067
								c-0.125-0.135-0.184-0.33-0.265-0.495c-0.129-0.264-0.286-0.481-0.416-0.746c-0.017-0.034-0.088-0.084-0.08-0.121
								C57.403,139.751,57.389,139.738,57.42,139.761z"/>
						</g>
						<g>
							<path style="fill:#9E8002;" d="M61.474,153.843c-0.3,0-0.602-0.05-0.889-0.149c-1.417-0.488-2.171-2.038-1.682-3.454
								c1.689-4.893-1.414-10.098-1.445-10.15c-0.778-1.272-0.379-2.946,0.891-3.729c0.618-0.381,1.347-0.5,2.053-0.331
								c0.706,0.167,1.304,0.599,1.686,1.217c0.185,0.301,4.48,7.437,1.95,14.766c-0.337,0.975-1.181,1.666-2.202,1.805l0,0
								C61.716,153.835,61.596,153.843,61.474,153.843z M59.772,136.455c-0.406,0-0.805,0.112-1.161,0.331
								c-1.036,0.639-1.363,2.005-0.727,3.045c0.034,0.055,3.256,5.461,1.491,10.573c-0.399,1.156,0.217,2.421,1.373,2.819
								c0.333,0.115,0.677,0.147,1.02,0.102h0.001c0.834-0.114,1.523-0.679,1.799-1.475c2.453-7.108-1.725-14.05-1.904-14.341
								c-0.311-0.504-0.8-0.857-1.376-0.994C60.117,136.474,59.943,136.455,59.772,136.455z"/>
						</g>
						<g>
							<path style="fill:#9E8002;" d="M58.735,142.413c-0.024,0-0.048-0.007-0.07-0.02c-0.056-0.038-0.072-0.116-0.034-0.174
								c1.446-2.168,4.023-1.748,4.049-1.742c0.068,0.011,0.113,0.076,0.101,0.144c-0.012,0.068-0.081,0.117-0.144,0.101
								c-0.024-0.005-2.445-0.393-3.798,1.637C58.815,142.393,58.775,142.413,58.735,142.413z"/>
							<path style="fill:#9E8002;" d="M59.784,145.189c-0.109,0-0.214-0.003-0.315-0.008c-0.069-0.004-0.121-0.062-0.117-0.132
								c0.004-0.068,0.049-0.123,0.132-0.117c1.527,0.087,4.201-0.572,4.228-0.577c0.059-0.018,0.133,0.023,0.15,0.091
								c0.017,0.067-0.024,0.135-0.091,0.15C63.667,144.622,61.364,145.189,59.784,145.189z"/>
							<path style="fill:#9E8002;" d="M61.637,148.574c-0.748,0-1.548-0.152-2.132-0.662c-0.051-0.046-0.056-0.124-0.011-0.176
								c0.044-0.05,0.124-0.056,0.176-0.011c1.306,1.144,3.948,0.292,3.974,0.283c0.063-0.02,0.134,0.013,0.158,0.08
								c0.021,0.065-0.014,0.135-0.08,0.158C63.656,148.266,62.7,148.574,61.637,148.574z"/>
							<path style="fill:#9E8002;" d="M61.857,151.885c-0.851,0-1.996-0.257-2.882-1.401c-0.043-0.054-0.032-0.133,0.022-0.174
								c0.054-0.042,0.134-0.033,0.174,0.022c1.493,1.923,3.703,1.179,3.796,1.146c0.067-0.02,0.136,0.011,0.16,0.076
								c0.022,0.065-0.011,0.136-0.076,0.16C63.04,151.717,62.545,151.885,61.857,151.885z"/>
							<path style="fill:#9E8002;" d="M57.515,139.78c-0.019,0-0.036-0.004-0.054-0.012c-0.062-0.03-0.088-0.104-0.059-0.166
								c1.292-2.7,3.9-2.287,3.927-2.282c0.068,0.012,0.113,0.076,0.101,0.145c-0.011,0.067-0.069,0.114-0.144,0.102
								c-0.098-0.019-2.448-0.386-3.66,2.143C57.606,139.754,57.562,139.78,57.515,139.78z"/>
						</g>
					</g>
					<path style="opacity:0.57;fill:#FFFFFF;" d="M62.242,139.889c0,0,3.066,4.993,1.166,9.929
						C63.408,149.818,63.672,144.118,62.242,139.889z"/>
				</g>
			</g>
		</g>
		<g>
			<path style="opacity:0.2;fill:#C3A4E0;" d="M23.428,107.115c5.148,1.756,16.694,3.964,36.713-0.665
				c1.673-0.387,3.253,0.937,3.137,2.65c-0.448,6.613-3.596,20.42-22.153,19.364c-18.702-1.064-20.97-12.543-21.067-18.881
				C20.031,107.811,21.75,106.543,23.428,107.115z"/>
			<path style="opacity:0.2;fill:#C3A4E0;" d="M28.549,109.225c3.289,1.122,10.666,2.533,23.455-0.425
				c1.069-0.247,2.078,0.599,2.004,1.693c-0.286,4.225-2.297,13.046-14.153,12.372c-11.949-0.68-13.398-8.014-13.459-12.063
				C26.379,109.669,27.478,108.859,28.549,109.225z"/>
		</g>
		<g>
			<path style="fill:#C3A4E0;" d="M23.734,96.725c-0.427,0.149-0.884,0.216-1.336,0.195c-0.198-0.009-0.4-0.036-0.576-0.127
				c-0.475-0.245-0.614-0.849-0.672-1.38c-0.058-0.531-0.115-1.126-0.524-1.469c-0.355-0.298-0.887-0.306-1.316-0.131
				c-0.429,0.175-0.775,0.504-1.096,0.838c-3.243,3.377-4.862,8.271-4.721,12.951c0.046,1.526,0.59,3.004,1.346,4.33
				c0.494,0.866,1.086,1.685,1.831,2.347c1.646,1.462,4.234,2.234,6.362,1.464c1.003,0.529,1.895,0.942,3.013,1.132
				c1.118,0.19,2.333,0.048,3.26-0.605c0.311-0.219,0.6-0.525,0.638-0.903c0.032-0.326-0.134-0.647-0.366-0.877
				c-0.233-0.231-0.532-0.363-0.822-0.516c1.228,0.109,2.489,0.021,3.646-0.404c1.157-0.425,2.206-1.207,2.821-2.275
				c0.125-0.216,0.234-0.456,0.218-0.705c-0.02-0.321-0.242-0.593-0.477-0.812c-0.862-0.801-2.053-1.359-3.226-1.256
				c0.577-0.303,1.154-0.606,1.731-0.91c0.573-0.301,1.153-0.607,1.633-1.041c0.617-0.557,1.036-1.294,1.444-2.018
				c0.595-1.058,1.203-2.177,1.207-3.391c0.001-0.159-0.01-0.322-0.074-0.468c-0.103-0.235-0.331-0.394-0.57-0.487
				c-0.648-0.253-1.39-0.096-2.016,0.205c-0.627,0.301-1.178,0.736-1.783,1.079c-1.351,0.765-2.837,1.009-4.367,0.742
				c2.22-0.956,4.255-2.65,4.991-4.953c0.266-0.833,0.354-1.711,0.438-2.581c0.064-0.663,0.053-1.478-0.524-1.811
				c-0.675-0.389-1.526-0.008-2.219,0.347c-1.515,0.775-3.084,1.438-4.651,2.101C25.945,95.771,24.79,96.356,23.734,96.725z"/>
			<g>
				<path style="fill:#C3A4E0;" d="M18.213,94.651c0.321-0.334,0.667-0.663,1.096-0.838c0.338-0.138,0.739-0.16,1.067-0.019
					c-0.138,0.017-0.274,0.05-0.401,0.102c-0.429,0.175-0.775,0.504-1.096,0.838c-3.242,3.377-4.862,8.271-4.72,12.951
					c0.046,1.526,0.59,3.004,1.346,4.33c0.494,0.866,1.086,1.685,1.831,2.347c0.927,0.823,2.152,1.427,3.425,1.661
					c-1.505-0.118-3.004-0.779-4.091-1.745c-0.745-0.662-1.337-1.481-1.831-2.347c-0.756-1.326-1.3-2.804-1.346-4.33
					C13.351,102.922,14.971,98.028,18.213,94.651z"/>
			</g>
			<g>
				<path style="fill:#C3A4E0;" d="M27.206,101.999c1.769-1.287,3.488-2.685,4.815-4.423c0.048-0.063,0.095-0.126,0.142-0.19
					c0.377-0.513,0.716-1.055,1.007-1.621c0.291-0.567,0.535-1.159,0.716-1.77c0.086-0.29,0.157-0.585,0.213-0.883
					c0.32,0.398,0.323,1.041,0.271,1.585c-0.084,0.87-0.171,1.748-0.438,2.581c-0.726,2.271-2.716,3.95-4.901,4.912
					C28.405,102.28,27.743,102.317,27.206,101.999z"/>
				<path style="fill:#C3A4E0;" d="M27.249,108.235c3.289-0.445,6.455-1.995,8.642-4.49c0.491-0.56,0.938-1.175,1.189-1.877
					c0.182-0.51,0.25-1.072,0.155-1.602c0.189,0.096,0.358,0.235,0.442,0.427c0.064,0.146,0.075,0.309,0.074,0.468
					c-0.005,1.214-0.612,2.333-1.207,3.391c-0.407,0.724-0.827,1.461-1.444,2.018c-0.48,0.434-1.06,0.74-1.633,1.041
					c-0.577,0.303-1.154,0.606-1.731,0.91c0.313-0.027,0.627-0.005,0.937,0.054c-1.812,0.382-3.725-0.112-5.595-0.233
					C27.054,108.34,27.221,108.255,27.249,108.235z"/>
				<path style="fill:#C3A4E0;" d="M27.259,108.227c0.003-0.001-0.007,0.005-0.011,0.008c-0.078,0.011-0.155,0.029-0.233,0.038
					C27.097,108.258,27.178,108.242,27.259,108.227z"/>
				<path style="fill:#C3A4E0;" d="M24.821,111.853c-0.116-0.106-0.238-0.25-0.198-0.402c0.033-0.124,0.168-0.197,0.296-0.201
					c0.128-0.004,0.25,0.046,0.369,0.094c1.367,0.557,2.789,1.013,4.257,1.168c1.468,0.155,2.992-0.004,4.329-0.631
					c0.453-0.212,0.891-0.485,1.204-0.876c0.141-0.177,0.251-0.38,0.322-0.596c0.017,0.058,0.035,0.116,0.038,0.178
					c0.015,0.249-0.094,0.489-0.218,0.705c-0.615,1.068-1.664,1.85-2.821,2.275c-0.715,0.263-1.469,0.396-2.231,0.434
					c-0.857-0.137-1.709-0.307-2.532-0.579C26.608,113.085,25.62,112.583,24.821,111.853z"/>
				<path style="fill:#C3A4E0;" d="M20.692,112.847c0.584,0.448,1.169,0.897,1.753,1.345c0.322,0.247,0.644,0.494,0.985,0.714
					c0.495,0.318,1.029,0.577,1.586,0.768c0.708,0.243,1.46,0.378,2.206,0.316c0.746-0.062,1.484-0.33,2.049-0.82
					c0.099-0.086,0.189-0.182,0.263-0.29c0.059-0.085,0.106-0.178,0.137-0.277c0.178,0.217,0.296,0.486,0.269,0.763
					c-0.038,0.379-0.327,0.684-0.638,0.903c-0.927,0.654-2.142,0.796-3.26,0.605c-1.061-0.18-1.92-0.566-2.862-1.056
					C22.24,114.923,21.295,113.998,20.692,112.847z"/>
				<path style="fill:#C3A4E0;" d="M16.67,114.279c-0.745-0.662-1.337-1.481-1.831-2.347c-0.756-1.326-1.3-2.804-1.346-4.33
					c-0.017-0.555-0.007-1.114,0.026-1.672c1.032,3.724,3.425,9.265,8.479,8.811l0.996,1.014
					C20.873,116.502,18.306,115.732,16.67,114.279z"/>
			</g>
			<g>
				<path style="fill:#4C1172;" d="M29.679,108.948c-0.856,0-1.754-0.11-2.683-0.336c-0.128-0.032-0.206-0.16-0.175-0.287
					c0.031-0.128,0.16-0.205,0.287-0.175c4.333,1.053,7.943-0.523,9.661-4.217c0.711-1.529,0.854-2.709,0.383-3.157
					c-0.447-0.425-1.465-0.251-2.869,0.487c-3.401,1.792-6.38,1.23-6.505,1.205c-0.128-0.025-0.212-0.15-0.187-0.278
					c0.025-0.129,0.151-0.213,0.278-0.187c0.031,0.006,2.945,0.55,6.193-1.16c2.048-1.077,2.988-0.818,3.417-0.411
					c0.644,0.613,0.545,1.928-0.28,3.702C35.748,107.253,33.032,108.948,29.679,108.948z"/>
				<path style="fill:#4C1172;" d="M29.593,114.057c-2.098,0-3.937-0.793-5.155-2.254c-0.083-0.101-0.071-0.251,0.031-0.335
					c0.099-0.083,0.25-0.072,0.335,0.031c1.323,1.587,3.455,2.322,5.845,2.014c2.054-0.264,3.82-1.261,4.395-2.483
					c0.198-0.418,0.202-0.76,0.017-1.044c-0.643-0.98-3.379-1.117-4.381-1.086c-0.145-0.009-0.241-0.099-0.245-0.23
					c-0.004-0.131,0.099-0.241,0.23-0.245c0.16-0.008,3.872-0.102,4.793,1.3c0.28,0.427,0.286,0.934,0.017,1.507
					c-0.641,1.363-2.556,2.469-4.765,2.752C30.331,114.033,29.958,114.057,29.593,114.057z"/>
				<path style="fill:#4C1172;" d="M26.862,117.404c-0.63,0-1.292-0.134-1.968-0.401c-2.179-0.863-4.113-2.929-4.653-4.349
					c-0.047-0.122,0.015-0.26,0.137-0.306c0.123-0.051,0.26,0.015,0.306,0.137c0.441,1.156,2.209,3.215,4.385,4.076
					c1.242,0.493,2.377,0.496,3.369,0.013c0.85-0.414,1.293-0.851,1.282-1.263c-0.016-0.628-1.039-1.201-1.431-1.368
					c-0.121-0.052-0.177-0.191-0.126-0.312c0.052-0.122,0.195-0.175,0.312-0.126c0.174,0.074,1.695,0.752,1.721,1.793
					c0.016,0.621-0.506,1.193-1.549,1.701C28.095,117.269,27.494,117.404,26.862,117.404z"/>
				<path style="fill:#4C1172;" d="M21.11,116.368c-2.023,0-5.02-0.918-7.073-5.63c-2.646-6.073,1.387-14.051,4.201-16.447
					c1.079-0.918,1.726-0.837,2.077-0.61c0.352,0.119,1.108,0.661,1.107,1.697c-0.001,0.648,0.165,1.121,0.467,1.331
					c0.25,0.174,0.604,0.177,1.058,0.01l0.544-0.199c1.809-0.659,5.574-2.029,7.426-3.095c1.511-0.869,2.45-1.124,3.036-0.83
					c0.352,0.176,0.563,0.544,0.629,1.092c0.186,1.546-0.264,7.578-5.861,8.865c-0.128,0.034-0.255-0.05-0.284-0.178
					c-0.03-0.127,0.05-0.255,0.178-0.284c5.252-1.208,5.671-6.89,5.496-8.345c-0.046-0.386-0.168-0.623-0.37-0.725
					c-0.417-0.209-1.285,0.068-2.586,0.817c-1.888,1.086-5.679,2.466-7.501,3.129l-0.542,0.198
					c-0.607,0.225-1.111,0.201-1.494-0.066c-0.432-0.303-0.671-0.913-0.67-1.721c0.001-0.953-0.806-1.262-0.84-1.274
					c-0.354-0.22-0.904-0.01-1.56,0.549c-2.723,2.318-6.629,10.031-4.073,15.896c3.153,7.236,8.413,5.104,8.635,5.008
					c0.117-0.047,0.26,0.004,0.311,0.126c0.052,0.12-0.004,0.26-0.124,0.311C23.272,116.004,22.384,116.368,21.11,116.368z"/>
				<path style="fill:#4C1172;" d="M29.679,108.948c-0.856,0-1.754-0.11-2.683-0.336c-0.128-0.032-0.206-0.16-0.175-0.287
					c0.031-0.128,0.16-0.205,0.287-0.175c4.333,1.053,7.943-0.523,9.661-4.217c0.711-1.529,0.854-2.709,0.383-3.157
					c-0.447-0.425-1.465-0.251-2.869,0.487c-3.401,1.792-6.38,1.23-6.505,1.205c-0.128-0.025-0.212-0.15-0.187-0.278
					c0.025-0.129,0.151-0.213,0.278-0.187c0.031,0.006,2.945,0.55,6.193-1.16c2.048-1.077,2.988-0.818,3.417-0.411
					c0.644,0.613,0.545,1.928-0.28,3.702C35.748,107.253,33.032,108.948,29.679,108.948z"/>
				<path style="fill:#4C1172;" d="M29.593,114.057c-2.098,0-3.937-0.793-5.155-2.254c-0.083-0.101-0.071-0.251,0.031-0.335
					c0.099-0.083,0.25-0.072,0.335,0.031c1.323,1.587,3.455,2.322,5.845,2.014c2.054-0.264,3.82-1.261,4.395-2.483
					c0.198-0.418,0.202-0.76,0.017-1.044c-0.643-0.98-3.379-1.117-4.381-1.086c-0.145-0.009-0.241-0.099-0.245-0.23
					c-0.004-0.131,0.099-0.241,0.23-0.245c0.16-0.008,3.872-0.102,4.793,1.3c0.28,0.427,0.286,0.934,0.017,1.507
					c-0.641,1.363-2.556,2.469-4.765,2.752C30.331,114.033,29.958,114.057,29.593,114.057z"/>
				<path style="fill:#4C1172;" d="M26.862,117.404c-0.63,0-1.292-0.134-1.968-0.401c-2.179-0.863-4.113-2.929-4.653-4.349
					c-0.047-0.122,0.015-0.26,0.137-0.306c0.123-0.051,0.26,0.015,0.306,0.137c0.441,1.156,2.209,3.215,4.385,4.076
					c1.242,0.493,2.377,0.496,3.369,0.013c0.85-0.414,1.293-0.851,1.282-1.263c-0.016-0.628-1.039-1.201-1.431-1.368
					c-0.121-0.052-0.177-0.191-0.126-0.312c0.052-0.122,0.195-0.175,0.312-0.126c0.174,0.074,1.695,0.752,1.721,1.793
					c0.016,0.621-0.506,1.193-1.549,1.701C28.095,117.269,27.494,117.404,26.862,117.404z"/>
				<path style="fill:#4C1172;" d="M21.11,116.368c-2.023,0-5.02-0.918-7.073-5.63c-2.646-6.073,1.387-14.051,4.201-16.447
					c1.079-0.918,1.726-0.837,2.077-0.61c0.352,0.119,1.108,0.661,1.107,1.697c-0.001,0.648,0.165,1.121,0.467,1.331
					c0.25,0.174,0.604,0.177,1.058,0.01l0.544-0.199c1.809-0.659,5.574-2.029,7.426-3.095c1.511-0.869,2.45-1.124,3.036-0.83
					c0.352,0.176,0.563,0.544,0.629,1.092c0.186,1.546-0.264,7.578-5.861,8.865c-0.128,0.034-0.255-0.05-0.284-0.178
					c-0.03-0.127,0.05-0.255,0.178-0.284c5.252-1.208,5.671-6.89,5.496-8.345c-0.046-0.386-0.168-0.623-0.37-0.725
					c-0.417-0.209-1.285,0.068-2.586,0.817c-1.888,1.086-5.679,2.466-7.501,3.129l-0.542,0.198
					c-0.607,0.225-1.111,0.201-1.494-0.066c-0.432-0.303-0.671-0.913-0.67-1.721c0.001-0.953-0.806-1.262-0.84-1.274
					c-0.354-0.22-0.904-0.01-1.56,0.549c-2.723,2.318-6.629,10.031-4.073,15.896c3.153,7.236,8.413,5.104,8.635,5.008
					c0.117-0.047,0.26,0.004,0.311,0.126c0.052,0.12-0.004,0.26-0.124,0.311C23.272,116.004,22.384,116.368,21.11,116.368z"/>
			</g>
			<g>
				<path style="fill:#C3A4E0;" d="M33.589,93.546c0,0-0.297-0.533-2.055,0.568c-1.758,1.101-6.776,3.676-9.001,3.496
					c0,0,3.282,1.33,7.317-1.142C33.885,93.996,33.699,93.989,33.589,93.546z"/>
				<path style="fill:#C3A4E0;" d="M37.037,101.042c0,0-0.432-0.666-2.647,0.374c-2.215,1.041-3.02,1.513-6.634,1.364
					c0,0,2.87,1.049,5.487,0.002C35.86,101.735,36.089,100.827,37.037,101.042z"/>
				<path style="fill:#C3A4E0;" d="M34.844,110.932c0,0,0.511-1.611-3.363-1.732c-3.873-0.122-4.771-0.485-4.771-0.485
					c0.265,0.107,0.515,0.262,0.781,0.373c0.724,0.301,1.499,0.518,2.28,0.638c0.788,0.12,1.571,0.098,2.364,0.111
					c0.597,0.01,1.211,0.085,1.765,0.319C34.244,110.302,34.696,110.559,34.844,110.932z"/>
				<path style="fill:#C3A4E0;" d="M24.162,112.069c0.014,0.06,0.121,0.145,0.16,0.188c0.156,0.168,0.325,0.324,0.502,0.47
					c0.541,0.446,1.15,0.774,1.801,1.028c0.45,0.175,0.91,0.325,1.356,0.512c0.392,0.164,0.911,0.366,1.207,0.684
					c-0.059-0.063-0.229-0.098-0.306-0.128c-0.646-0.257-1.327-0.471-2.02-0.552c-0.597-0.07-1.258-0.083-1.739-0.495
					c-0.364-0.311-0.615-0.74-0.792-1.18C24.263,112.424,24.203,112.248,24.162,112.069z"/>
				<path style="fill:#C3A4E0;" d="M16.955,111.245c0,0,1.414,2.229,3.815,2.857C20.77,114.103,17.786,114.453,16.955,111.245z"/>
			</g>
			<path style="fill:#C3A4E0;" d="M15.539,103.836l-1.298,4.262l-1.626-4.422c0,0,3.089-9.484,6.56-10.525l1.244,1.2
				C20.418,94.351,16.032,99.076,15.539,103.836z"/>
		</g>
		<g>
			<g>
				<g>
					<g>
						<path style="fill:#C3A4E0;" d="M22.273,74.621c-0.003,0.009-0.007,0.019-0.01,0.028c0.003-0.013,0.007-0.028,0.01-0.041
							c0.079-1.996,0.872-3.969,2.396-5.493c0.804-0.804,1.732-1.407,2.723-1.809c0.991-0.402,2.045-0.603,3.098-0.603
							c0.263,0,0.527,0.013,0.789,0.038c0.525,0.05,1.046,0.151,1.555,0.301c1.273,0.377,2.473,1.067,3.478,2.072
							c0.179,0.179,0.344,0.366,0.504,0.557c0.044,0.053,0.087,0.106,0.129,0.16c0.126,0.158,0.245,0.32,0.357,0.485
							c0.028,0.041,0.058,0.081,0.085,0.122c0.129,0.197,0.247,0.4,0.358,0.605c0.034,0.064,0.065,0.129,0.098,0.194
							c0.076,0.152,0.148,0.306,0.214,0.461c0.031,0.074,0.064,0.147,0.093,0.221c0.079,0.202,0.152,0.407,0.215,0.614
							c0.025,0.084,0.045,0.168,0.068,0.252c0.036,0.136,0.07,0.272,0.1,0.409c0.023,0.106,0.044,0.212,0.063,0.319
							c0.021,0.123,0.038,0.248,0.054,0.372c0.024,0.191,0.042,0.382,0.053,0.573c0.006,0.101,0.012,0.201,0.014,0.302
							c0.003,0.135,0.001,0.269-0.003,0.403c-0.002,0.081-0.007,0.162-0.012,0.243c-0.027,0.47-0.093,0.937-0.2,1.397
							c-0.015,0.063-0.03,0.125-0.046,0.187c-0.039,0.15-0.079,0.299-0.126,0.447l0,0l0,0c-0.386,1.214-1.055,2.357-2.017,3.32
							c-3.215,3.215-8.428,3.215-11.643,0C22.982,79.07,22.189,76.832,22.273,74.621z"/>
						<g>
							<path style="fill:#FFFFFF;" d="M25.695,69.04c-2.908,2.908-2.908,7.622,0,10.53c2.908,2.908,7.622,2.908,10.53,0
								c2.908-2.908,2.908-7.622,0-10.53C33.318,66.132,28.603,66.132,25.695,69.04z"/>
							<g>
								<path style="fill:#B2B2B2;" d="M36.251,70.347c-2.908-2.908-7.622-2.908-10.53,0c-0.871,0.871-1.852,2.6-2.201,3.698
									c0.309-1.292,1.167-3.996,2.176-5.005c2.908-2.908,7.622-2.908,10.53,0c2.037,2.037,2.641,4.959,1.825,7.527
									C38.632,74.133,38.151,72.247,36.251,70.347z"/>
							</g>
							<g>
								<g>
									<path style="fill:#EC69B0;" d="M25.219,70.334c-1.25,1.923-0.704,4.497,1.22,5.748c1.924,1.25,4.497,0.705,5.748-1.219
										c1.251-1.924,0.705-4.497-1.219-5.749C29.045,67.863,26.471,68.409,25.219,70.334z"/>
									<path style="fill:#593484;" d="M26.407,71.104c-0.824,1.268-0.465,2.965,0.804,3.79c1.269,0.824,2.966,0.465,3.79-0.803
										c0.825-1.269,0.465-2.965-0.804-3.789C28.928,69.477,27.232,69.836,26.407,71.104z"/>
								</g>
								<path style="fill:#FFFFFF;" d="M26.913,69.661c-0.412,0.633-0.232,1.477,0.4,1.889c0.632,0.411,1.478,0.231,1.89-0.401
									c0.411-0.632,0.23-1.477-0.402-1.888C28.169,68.849,27.324,69.028,26.913,69.661z"/>
								<path style="fill:#FFFFFF;" d="M28.227,74.71c-0.204,0.313-0.114,0.73,0.198,0.934c0.312,0.203,0.731,0.114,0.934-0.198
									c0.203-0.313,0.114-0.73-0.199-0.933C28.848,74.309,28.43,74.398,28.227,74.71z"/>
							</g>
							<path style="fill:#C79E86;" d="M30.961,81.986c-2.052,0-3.981-0.799-5.432-2.25c-2.995-2.995-2.995-7.867,0-10.862
								c1.451-1.451,3.38-2.25,5.432-2.25c2.051,0,3.98,0.799,5.431,2.25c2.995,2.995,2.995,7.867,0,10.862
								C34.941,81.187,33.012,81.986,30.961,81.986z M30.961,67.094c-1.927,0-3.738,0.75-5.1,2.112
								c-2.812,2.811-2.812,7.387,0,10.198c1.362,1.363,3.173,2.112,5.1,2.112c1.926,0,3.737-0.749,5.099-2.112
								c2.812-2.811,2.812-7.387,0-10.198C34.698,67.843,32.887,67.094,30.961,67.094z"/>
						</g>
					</g>
				</g>
				<path style="fill:#C3A4E0;" d="M25.964,62.771c0,0,5.134-5.321,12.047,0.832C38.011,63.603,31.616,53.525,25.964,62.771z"/>
			</g>
			<g>
				<g>
					<path style="fill:#FFFFFF;" d="M37.85,70.479c1.372,1.846,1.318,3.844,1.366,6.02c0.002,0.076,0.113,0.093,0.133,0.018
						c0.51-1.865-0.034-4.706-1.479-6.054C37.86,70.455,37.841,70.467,37.85,70.479L37.85,70.479z"/>
				</g>
				<g>
					<path style="fill:#FFFFFF;" d="M39.156,71.164c0.582,1.201,0.947,2.583,1.102,3.908c0.003,0.027,0.041,0.028,0.043,0
						c0.11-1.473-0.269-2.71-1.122-3.921C39.169,71.138,39.149,71.149,39.156,71.164L39.156,71.164z"/>
				</g>
			</g>
		</g>
		<g>
			<g>
				<g>
					<g>
						<path style="fill:#C3A4E0;" d="M45.658,74.621c-0.003,0.009-0.007,0.019-0.009,0.028c0.003-0.013,0.007-0.028,0.01-0.041
							c0.079-1.996,0.872-3.969,2.396-5.493c0.804-0.804,1.732-1.407,2.723-1.809c0.991-0.402,2.045-0.603,3.098-0.603
							c0.263,0,0.527,0.013,0.789,0.038c0.525,0.05,1.046,0.151,1.555,0.301c1.273,0.377,2.473,1.067,3.478,2.072
							c0.179,0.179,0.345,0.366,0.504,0.557c0.044,0.053,0.087,0.106,0.129,0.16c0.125,0.158,0.244,0.32,0.357,0.485
							c0.028,0.041,0.058,0.081,0.085,0.122c0.129,0.197,0.247,0.4,0.358,0.605c0.034,0.064,0.065,0.129,0.098,0.194
							c0.076,0.152,0.148,0.306,0.214,0.461c0.031,0.074,0.064,0.147,0.093,0.221c0.079,0.202,0.152,0.407,0.215,0.614
							c0.025,0.084,0.045,0.168,0.068,0.252c0.036,0.136,0.07,0.272,0.1,0.409c0.023,0.106,0.044,0.212,0.063,0.319
							c0.021,0.123,0.038,0.248,0.054,0.372c0.024,0.191,0.042,0.382,0.053,0.573c0.006,0.101,0.012,0.201,0.014,0.302
							c0.003,0.135,0.001,0.269-0.002,0.403c-0.002,0.081-0.007,0.162-0.012,0.243c-0.027,0.47-0.093,0.937-0.2,1.397
							c-0.014,0.063-0.03,0.125-0.046,0.187c-0.039,0.15-0.079,0.299-0.126,0.447l0,0l0,0c-0.386,1.214-1.055,2.357-2.017,3.32
							c-3.215,3.215-8.428,3.215-11.643,0C46.366,79.07,45.574,76.832,45.658,74.621z"/>
						<g>
							<path style="fill:#FFFFFF;" d="M49.08,69.04c-2.908,2.908-2.908,7.622,0,10.53c2.908,2.908,7.622,2.908,10.53,0
								c2.908-2.908,2.908-7.622,0-10.53C56.702,66.132,51.988,66.132,49.08,69.04z"/>
							<g>
								<path style="fill:#B2B2B2;" d="M59.636,70.347c-2.908-2.908-7.622-2.908-10.53,0c-0.871,0.871-1.852,2.6-2.201,3.698
									c0.309-1.292,1.167-3.996,2.176-5.005c2.908-2.908,7.622-2.908,10.53,0c2.037,2.037,2.641,4.959,1.824,7.527
									C62.017,74.133,61.535,72.247,59.636,70.347z"/>
							</g>
							<g>
								<g>
									<path style="fill:#EC69B0;" d="M48.604,70.334c-1.25,1.923-0.704,4.497,1.22,5.748c1.924,1.25,4.497,0.705,5.748-1.219
										c1.251-1.924,0.705-4.497-1.219-5.749C52.429,67.863,49.856,68.409,48.604,70.334z"/>
									<path style="fill:#593484;" d="M49.791,71.104c-0.824,1.268-0.465,2.965,0.804,3.79c1.269,0.824,2.966,0.465,3.79-0.803
										c0.824-1.269,0.465-2.965-0.804-3.789C52.313,69.477,50.616,69.836,49.791,71.104z"/>
								</g>
								<path style="fill:#FFFFFF;" d="M50.298,69.661c-0.412,0.633-0.232,1.477,0.4,1.889c0.632,0.411,1.478,0.231,1.89-0.401
									c0.411-0.632,0.23-1.477-0.402-1.888C51.554,68.849,50.709,69.028,50.298,69.661z"/>
								<path style="fill:#FFFFFF;" d="M51.611,74.71c-0.203,0.313-0.115,0.73,0.198,0.934c0.312,0.203,0.731,0.114,0.934-0.198
									c0.203-0.313,0.114-0.73-0.199-0.933C52.232,74.309,51.814,74.398,51.611,74.71z"/>
							</g>
							<path style="fill:#C79E86;" d="M54.345,81.986c-2.051,0-3.98-0.799-5.431-2.25c-1.451-1.451-2.25-3.38-2.25-5.431
								c0-2.051,0.799-3.98,2.25-5.431l0,0l0,0c1.451-1.451,3.38-2.25,5.431-2.25c2.051,0,3.98,0.799,5.431,2.25
								c1.451,1.451,2.25,3.38,2.25,5.431c0,2.051-0.799,3.98-2.25,5.431C58.325,81.187,56.396,81.986,54.345,81.986z
								 M54.345,67.094c-1.926,0-3.737,0.75-5.099,2.112l0,0c-1.363,1.362-2.112,3.173-2.112,5.099c0,1.926,0.75,3.737,2.112,5.099
								c1.362,1.363,3.173,2.112,5.099,2.112c1.926,0,3.737-0.749,5.099-2.112c1.363-1.362,2.112-3.173,2.112-5.099
								c0-1.926-0.75-3.737-2.112-5.099C58.082,67.843,56.271,67.094,54.345,67.094z M49.08,69.04h0.006H49.08z"/>
						</g>
					</g>
				</g>
				<path style="fill:#C3A4E0;" d="M48.163,62.461c0,0,5.414-5.036,11.985,1.482C60.148,63.942,54.306,53.534,48.163,62.461z"/>
			</g>
		</g>
		<g>
			<path style="fill:#C3A4E0;" d="M51.415,85.902c-0.92-0.594-2.325-0.132-3.098-0.907c-0.236-0.236-0.369-0.554-0.468-0.872
				c-0.342-1.099-0.345-2.307-0.875-3.329c-0.871-1.677-3.007-2.397-4.874-2.097c-1.071,0.172-2.063,0.614-2.985,1.191
				c0.677,0.941,0.874,2.196,0.079,3.498c-1.074,1.759-0.701,4.663-0.821,6.702c-0.163,2.766,0.02,5.398,0.705,8.095
				c0.033,0.13,0.037,0.25,0.057,0.374c1.634,0.167,3.313,0.053,4.932-0.244c1.464-0.269,2.955-0.696,4.093-1.656
				c0.867-0.731,1.471-1.724,1.989-2.733c0.766-1.488,1.382-3.053,1.837-4.664C52.317,88.087,52.441,86.564,51.415,85.902z"/>
			<g>
				<g>
					<path style="fill:#DA7000;" d="M49.051,94.556c0.35-0.558,0.597-1.154,0.752-1.792c0.118-0.486-0.002-0.875-0.057-1.333
						c0.081-0.06,0.159-0.127,0.229-0.211c0.128-0.218,0.221-0.448,0.23-0.696c-0.079-0.578-0.615-1.307-0.838-1.642
						c-0.692-1.036-1.662-1.99-2.733-2.636c0.144-0.941,0.197-1.888,0.001-2.838c-0.304-1.469-1.111-2.801-2.184-3.83
						c-2.131-2.044-5.668-1.326-8.209-0.589c-2.992,0.868-5.462,2.555-7.799,4.561c-1.343,1.153-2.648,2.371-3.768,3.744
						c-1.136,1.393-2.112,2.908-3.174,4.357c-0.038,0.051-0.031,0.086-0.001,0.11c0.524-0.309,1.064-0.589,1.623-0.824
						c1.402-0.774,2.917-1.207,4.497-1.661c0.957-0.275,1.906-0.575,2.901-0.669c1.086-0.103,2.178-0.099,3.266-0.174
						c0.742-0.05,1.48-0.054,2.215-0.019c-0.681,0.375-1.399,0.676-2.069,1.073c-0.634,0.375-1.218,0.833-1.788,1.298
						c-1.315,1.072-2.672,2.188-3.797,3.463c-1.04,1.179-2.106,2.318-2.954,3.649c-0.657,1.031-1.588,2.222-1.5,3.515
						c0.011,0.164,0.312,0.06,0.374,0.007c0.144-0.12,0.291-0.238,0.437-0.357c0.02-0.006,0.038-0.012,0.05-0.021
						c1.2-0.82,2.309-1.439,3.746-1.764c1.316-0.298,2.679-0.368,4.023-0.371c2.72-0.005,5.389,0.71,8.094,0.667
						c1.17-0.019,2.307-0.261,3.427-0.582c1.018-0.289,1.772-0.81,2.553-1.516C47.528,96.636,48.388,95.615,49.051,94.556z"/>
					<path style="fill:#FDCB46;" d="M33.528,88.167c-1.08,0.074-2.163,0.078-3.242,0.18c-1.034,0.098-2.047,0.462-3.039,0.748
						c-1.711,0.492-3.336,0.986-4.824,1.908c0.675-0.943,1.335-1.896,2.03-2.823c0.995-1.326,2.142-2.485,3.353-3.611
						c2.154-2.004,4.465-3.754,7.214-4.846c2.581-1.026,6.36-1.954,8.764-0.144c1.24,0.934,2.056,2.455,2.466,3.92
						c0.251,0.899,0.22,1.837,0.108,2.766c-0.006,0.01-0.009,0.021-0.005,0.033c-0.024,0.192-0.053,0.382-0.081,0.574
						c0.033,0.301,0.058,0.603,0.07,0.906c0.091-0.43,0.179-0.861,0.252-1.294c1.166,0.839,2.188,1.993,2.848,3.264
						c0.012,0.024,0.02,0.046,0.032,0.069c0.022,0.042,0.039,0.086,0.058,0.13c0.09,0.199,0.166,0.397,0.222,0.616
						c-0.052,0.108-0.107,0.202-0.165,0.289c-0.042,0.091-0.103,0.165-0.175,0.226c-0.286,0.314-0.626,0.417-1.022,0.303
						c-0.291-0.05-0.576-0.126-0.852-0.227c-0.64-0.211-1.929-0.862-1.974-0.845C41.804,88.727,37.605,87.887,33.528,88.167z"/>
					<path style="fill:#FDCB46;" d="M23.803,89.072c1.266-1.288,2.715-2.404,4.202-3.43c2.125-1.466,4.288-2.931,6.689-3.911
						c2.941-1.202,7.503-2.128,10.576-0.48c-0.401-0.645-0.894-1.227-1.486-1.673c-2.404-1.81-6.183-0.882-8.764,0.144
						c-2.749,1.092-5.061,2.842-7.214,4.846c-1.21,1.126-2.358,2.285-3.353,3.611C24.233,88.473,24.019,88.773,23.803,89.072z"/>
					<path style="fill:#C04427;" d="M33.916,95.372c0.219-0.54,2.465-2.976,2.724-3.236c1.188-1.194,2.562-2.241,4.074-2.99
						c0.013-0.006,0.026-0.015,0.039-0.025c1.663,0.39,3.305,0.898,4.914,1.439c0.481,0.266,1.151,0.642,1.838,0.897
						c-0.678,0.274-1.317,0.78-1.958,1.085c-1.098,0.524-2.316,0.819-3.494,1.106c-2.393,0.583-4.818,1.045-7.233,1.53
						C34.525,95.238,34.221,95.304,33.916,95.372z"/>
					<path style="fill:#F79F42;" d="M24.353,100.844c0.195-1.223,1.185-2.434,1.833-3.395c0.854-1.267,1.939-2.454,3.004-3.549
						c1.038-1.066,2.201-2.029,3.337-2.99c1.207-1.018,2.572-1.633,3.884-2.47c1.348,0.089,2.685,0.31,4.007,0.606
						c-2.808,1.193-5.447,3.811-6.947,6.428C30.022,96.289,26.197,97.739,24.353,100.844z"/>
					<path style="fill:#FDCB46;" d="M28.389,94.992c1.519-1.446,3.126-2.915,4.845-4.119c1.254-0.877,2.577-1.638,3.92-2.366
						c-0.247-0.025-0.494-0.051-0.743-0.067c-1.312,0.837-2.678,1.452-3.884,2.47c-1.136,0.961-2.299,1.924-3.337,2.99
						c-0.806,0.828-1.623,1.711-2.344,2.64C27.353,95.999,27.873,95.483,28.389,94.992z"/>
					<path style="fill:#FDCB46;" d="M45.744,97.741c-2.106,1.778-5.375,1.636-7.926,1.257c-2.492-0.37-5.061-0.544-7.574-0.305
						c-1.91,0.181-3.874,0.667-5.382,1.894c2.57-3.516,7.337-4.569,11.365-5.382c2.171-0.438,4.348-0.871,6.496-1.411
						c0.927-0.233,1.836-0.52,2.723-0.873c0.413-0.164,0.806-0.371,1.199-0.575c0.421-0.22,0.845-0.603,1.309-0.73
						c0.006-0.001,0.011-0.005,0.017-0.007c0.458,0.125,0.907,0.173,1.296,0.071l-0.001,0.002c0.086-0.029,0.167-0.068,0.248-0.106
						c-0.017,0.059-0.034,0.126-0.034,0.188c0.003,0.332,0.033,0.459-0.016,0.757c-0.118,0.719-0.483,1.37-0.85,1.988
						C47.898,95.713,46.815,96.838,45.744,97.741z"/>
					<g>
						<path style="fill:#FDCB46;" d="M39.587,97.667c3.26-0.417,6.424-1.923,8.577-4.406c0.215-0.248,0.418-0.507,0.596-0.783
							c0.159-0.245,0.299-0.503,0.405-0.775c0.001-0.003,0.001-0.005,0.003-0.008c0.033-0.007,0.067-0.008,0.099-0.016l-0.001,0.002
							c0.086-0.03,0.167-0.068,0.249-0.106c-0.017,0.059-0.034,0.126-0.034,0.188c0.003,0.332,0.032,0.459-0.016,0.757
							c-0.118,0.719-0.483,1.37-0.849,1.987c-0.718,1.207-1.801,2.332-2.871,3.235c-2.106,1.778-5.375,1.636-7.926,1.257
							c-1.517-0.225-3.061-0.363-4.605-0.394c0.772-0.308,1.597-0.499,2.425-0.603C36.949,97.837,38.276,97.835,39.587,97.667z"/>
					</g>
					<path style="fill:#FDCB46;" d="M30.237,97.797c1.979-0.298,3.956-0.618,5.918-1.015c1.368-0.277,2.624-0.794,3.892-1.299
						C36.66,95.722,33.326,96.35,30.237,97.797z"/>
					<g>
						<path style="fill:#FDCB46;" d="M46.358,86.263c-0.006,0.01-0.009,0.021-0.005,0.033c-0.024,0.192-0.053,0.382-0.081,0.574
							c0.033,0.301,0.058,0.603,0.07,0.906c0.091-0.43,0.179-0.861,0.252-1.294c1.165,0.839,2.188,1.993,2.848,3.264
							c0.012,0.024,0.02,0.046,0.032,0.069c0.022,0.042,0.039,0.086,0.058,0.13c0.09,0.199,0.166,0.397,0.222,0.616
							c-0.052,0.108-0.107,0.202-0.165,0.289c-0.042,0.091-0.103,0.165-0.175,0.226c-0.286,0.314-0.626,0.417-1.022,0.303
							c-0.291-0.05-0.576-0.126-0.852-0.227c-0.64-0.211-1.929-0.862-1.974-0.845c-3.762-1.58-7.96-2.42-12.037-2.14
							c-1.08,0.074-2.163,0.078-3.242,0.18c-1.034,0.098-2.047,0.462-3.039,0.748c-1.081,0.311-2.123,0.635-3.122,1.055
							c0.26-0.199,0.519-0.399,0.784-0.593c2.065-1.51,4.485-2.521,7.001-2.975c2.519-0.454,5.04-0.23,7.538,0.196
							c1.213,0.207,2.413,0.491,3.59,0.852c0.588,0.18,1.159,0.42,1.747,0.597c0.254,0.076,1.431,0.104,1.53,0.231
							c-0.226-0.289-0.418-0.579-0.611-0.89c-0.032-0.052-0.064-0.104-0.093-0.158c-0.208-0.369-0.356-0.769-0.346-1.201
							c0.017-0.71,0.351-1.378,0.491-2.066c0.065-0.32,0.004-1.031,0.267-1.34c0.085,0.231,0.163,0.464,0.228,0.695
							C46.501,84.396,46.469,85.334,46.358,86.263z"/>
					</g>
				</g>
			</g>
		</g>
		<g>
			<path style="fill:#C3A4E0;" d="M60.588,95.787c0.389,0.245,0.826,0.414,1.278,0.495c0.198,0.036,0.404,0.054,0.599,0.004
				c0.525-0.135,0.8-0.701,0.977-1.214c0.177-0.512,0.369-1.088,0.851-1.336c0.418-0.215,0.947-0.102,1.332,0.168
				c0.385,0.271,0.653,0.674,0.895,1.077c2.446,4.076,2.942,9.285,1.744,13.885c-0.391,1.5-1.263,2.84-2.312,3.981
				c-0.684,0.745-1.455,1.422-2.342,1.909c-1.96,1.075-4.696,1.254-6.627,0.01c-1.112,0.296-2.088,0.504-3.238,0.44
				c-1.15-0.064-2.32-0.48-3.089-1.336c-0.258-0.287-0.475-0.655-0.427-1.038c0.042-0.33,0.278-0.61,0.561-0.786
				c0.283-0.176,0.609-0.239,0.93-0.325c-1.24-0.17-2.468-0.542-3.517-1.224c-1.049-0.682-1.91-1.693-2.278-2.889
				c-0.074-0.242-0.128-0.504-0.057-0.747c0.092-0.313,0.373-0.532,0.656-0.696c1.035-0.598,2.339-0.881,3.477-0.514
				c-0.503-0.431-1.005-0.861-1.508-1.292c-0.499-0.427-1.004-0.861-1.381-1.399c-0.485-0.691-0.733-1.515-0.973-2.324
				c-0.349-1.182-0.698-2.427-0.428-3.629c0.035-0.158,0.083-0.317,0.179-0.446c0.155-0.209,0.417-0.315,0.674-0.353
				c0.698-0.104,1.397,0.219,1.949,0.658c0.552,0.439,1,0.995,1.521,1.471c1.164,1.063,2.58,1.64,4.154,1.722
				c-1.981-1.448-3.612-3.585-3.82-6.03c-0.075-0.884,0.036-1.773,0.15-2.653c0.087-0.671,0.281-1.475,0.928-1.674
				c0.756-0.233,1.512,0.337,2.118,0.845c1.324,1.109,2.727,2.121,4.128,3.131C58.615,94.343,59.627,95.184,60.588,95.787z"/>
			<g>
				<path style="fill:#C3A4E0;" d="M66.521,94.983c-0.242-0.403-0.51-0.807-0.895-1.077c-0.303-0.213-0.695-0.325-1.052-0.26
					c0.133,0.048,0.26,0.112,0.374,0.192c0.385,0.271,0.653,0.674,0.895,1.077c2.446,4.076,2.942,9.285,1.744,13.885
					c-0.391,1.5-1.263,2.84-2.311,3.981c-0.684,0.745-1.455,1.422-2.342,1.909c-1.103,0.605-2.452,0.926-3.766,0.869
					c1.516,0.224,3.149-0.091,4.444-0.802c0.887-0.487,1.658-1.164,2.342-1.909c1.048-1.142,1.921-2.481,2.312-3.981
					C69.463,104.268,68.966,99.058,66.521,94.983z"/>
			</g>
			<g>
				<path style="fill:#C3A4E0;" d="M55.96,100.223c-1.459-1.673-2.845-3.445-3.765-5.466c-0.033-0.073-0.066-0.146-0.098-0.22
					c-0.257-0.593-0.47-1.206-0.63-1.832c-0.16-0.627-0.267-1.268-0.309-1.913c-0.02-0.307-0.023-0.614-0.012-0.922
					c-0.407,0.322-0.555,0.957-0.626,1.507c-0.114,0.88-0.225,1.769-0.15,2.653c0.205,2.412,1.795,4.523,3.74,5.97
					C54.709,100.23,55.356,100.416,55.96,100.223z"/>
				<path style="fill:#C3A4E0;" d="M54.508,106.385c-3.155-1.184-5.937-3.434-7.538-6.398c-0.36-0.666-0.663-1.375-0.753-2.127
					c-0.065-0.546-0.005-1.118,0.208-1.62c-0.209,0.052-0.408,0.151-0.534,0.322c-0.096,0.13-0.144,0.289-0.179,0.446
					c-0.27,1.202,0.079,2.448,0.428,3.629c0.239,0.809,0.488,1.633,0.973,2.324c0.377,0.538,0.882,0.972,1.381,1.399
					c0.503,0.431,1.005,0.861,1.508,1.292c-0.304-0.098-0.62-0.146-0.939-0.158c1.707,0.788,3.712,0.731,5.59,1.034
					C54.677,106.533,54.531,106.41,54.508,106.385z"/>
				<path style="fill:#C3A4E0;" d="M54.499,106.374c-0.003-0.001,0.006,0.007,0.009,0.01c0.075,0.028,0.147,0.063,0.222,0.09
					C54.653,106.441,54.576,106.408,54.499,106.374z"/>
				<path style="fill:#C3A4E0;" d="M56.092,110.514c0.139-0.079,0.292-0.193,0.286-0.353c-0.005-0.13-0.122-0.233-0.247-0.266
					c-0.126-0.033-0.258-0.011-0.387,0.01c-1.479,0.242-2.989,0.372-4.478,0.194c-1.488-0.179-2.96-0.681-4.142-1.603
					c-0.401-0.313-0.773-0.681-0.993-1.139c-0.1-0.207-0.163-0.433-0.184-0.662c-0.03,0.054-0.061,0.108-0.078,0.168
					c-0.072,0.243-0.018,0.505,0.057,0.747c0.367,1.196,1.228,2.207,2.278,2.889c0.648,0.422,1.365,0.724,2.11,0.934
					c0.879,0.059,1.761,0.082,2.637,0C54.045,111.329,55.136,111.056,56.092,110.514z"/>
				<path style="fill:#C3A4E0;" d="M59.954,112.431c-0.68,0.312-1.36,0.623-2.04,0.935c-0.374,0.172-0.749,0.344-1.137,0.484
					c-0.562,0.203-1.149,0.339-1.743,0.402c-0.755,0.081-1.531,0.044-2.255-0.186c-0.724-0.23-1.395-0.662-1.843-1.275
					c-0.078-0.107-0.146-0.223-0.195-0.346c-0.039-0.097-0.065-0.2-0.073-0.305c-0.225,0.175-0.403,0.414-0.439,0.694
					c-0.049,0.383,0.169,0.751,0.427,1.038c0.769,0.857,1.94,1.272,3.089,1.336c1.09,0.061,2.028-0.126,3.071-0.398
					C57.953,114.136,59.098,113.434,59.954,112.431z"/>
				<path style="fill:#C3A4E0;" d="M63.611,114.758c0.887-0.487,1.658-1.164,2.342-1.909c1.048-1.142,1.921-2.481,2.312-3.981
					c0.142-0.546,0.258-1.101,0.353-1.661c-1.863,3.452-5.484,8.396-10.383,6.803l-1.215,0.779
					C58.949,116.008,61.663,115.827,63.611,114.758z"/>
			</g>
			<g>
				<path style="fill:#4C1172;" d="M54.491,106.705c-4.62,0-7.901-2.476-8.795-6.652c-0.404-1.891-0.224-3.172,0.507-3.607
					c0.696-0.413,1.788-0.009,3.16,1.168c2.858,2.453,5.904,2.573,5.935,2.574c0.071,0.003,0.128,0.062,0.126,0.134
					c-0.003,0.071-0.048,0.134-0.134,0.126c-0.031-0.001-3.165-0.121-6.096-2.637c-1.261-1.082-2.275-1.484-2.858-1.142
					c-0.62,0.368-0.76,1.583-0.386,3.331c0.866,4.046,4.053,6.446,8.543,6.446c0.058,0,0.116,0,0.175-0.001c0.001,0,0.001,0,0.002,0
					c0.071,0,0.129,0.056,0.13,0.128c0.001,0.071-0.057,0.131-0.128,0.132C54.612,106.705,54.551,106.705,54.491,106.705z"/>
				<path style="fill:#4C1172;" d="M52.607,111.706c-0.902,0-1.843-0.171-2.785-0.518c-2.088-0.767-3.705-2.262-4.024-3.719
					c-0.128-0.587-0.019-1.053,0.326-1.384c1.184-1.135,4.781-0.214,4.933-0.174c0.069,0.018,0.111,0.089,0.093,0.158
					c-0.018,0.07-0.086,0.11-0.158,0.093c-0.037-0.008-3.608-0.925-4.688,0.111c-0.278,0.268-0.361,0.641-0.251,1.141
					c0.301,1.375,1.851,2.793,3.859,3.532c2.334,0.857,4.647,0.607,6.346-0.688c0.058-0.044,0.139-0.033,0.182,0.024
					c0.044,0.058,0.032,0.138-0.024,0.182C55.334,111.286,54.018,111.706,52.607,111.706z"/>
				<path style="fill:#4C1172;" d="M53.93,115.555c-1.051,0-1.979-0.304-2.716-0.898c-0.881-0.71-1.255-1.355-1.11-1.92
					c0.248-0.974,1.947-1.291,2.02-1.304c0.078-0.009,0.138,0.035,0.151,0.105c0.012,0.071-0.034,0.138-0.105,0.151
					c-0.016,0.003-1.608,0.3-1.816,1.112c-0.116,0.456,0.228,1.013,1.023,1.653c0.899,0.724,2.049,0.983,3.422,0.773
					c2.379-0.365,4.628-2.029,5.338-3.091c0.04-0.059,0.121-0.074,0.18-0.035c0.059,0.04,0.075,0.12,0.035,0.18
					c-0.847,1.269-3.266,2.858-5.514,3.203C54.526,115.532,54.224,115.555,53.93,115.555z"/>
				<path style="fill:#4C1172;" d="M60.208,115.877c-2.043,0-3.447-0.99-3.474-1.009c-0.058-0.042-0.07-0.123-0.029-0.181
					c0.042-0.059,0.123-0.071,0.181-0.029c0.203,0.147,5.01,3.511,9.833-3.029c3.887-5.271,1.75-13.854-0.439-16.786
					c-0.561-0.754-1.09-1.094-1.494-0.946c-0.068,0.011-1.011,0.14-1.244,1.163c-0.173,0.763-0.522,1.286-0.984,1.473
					c-0.406,0.166-0.873,0.076-1.39-0.263l-0.499-0.323c-1.65-1.066-5.081-3.283-6.694-4.776c-1.164-1.078-1.967-1.546-2.477-1.42
					c-0.263,0.064-0.461,0.294-0.608,0.703c-0.51,1.421-1.39,7.221,3.61,9.64c0.064,0.032,0.092,0.108,0.06,0.174
					c-0.032,0.065-0.108,0.091-0.174,0.06c-5.174-2.504-4.268-8.494-3.742-9.961c0.179-0.498,0.438-0.782,0.791-0.868
					c0.609-0.143,1.447,0.307,2.714,1.482c1.597,1.478,5.015,3.687,6.658,4.749l0.5,0.324c0.443,0.288,0.83,0.369,1.151,0.239
					c0.381-0.154,0.675-0.612,0.829-1.29c0.274-1.205,1.426-1.355,1.437-1.357c0.5-0.181,1.116,0.177,1.762,1.043
					c2.227,2.984,4.4,11.725,0.44,17.095C64.534,115.029,62.097,115.877,60.208,115.877z"/>
				<path style="fill:#4C1172;" d="M54.491,106.813c-4.675,0.001-7.995-2.508-8.9-6.736c-0.416-1.941-0.217-3.263,0.558-3.723
					c0.515-0.306,1.505-0.349,3.285,1.179c2.826,2.426,5.837,2.547,5.868,2.548c0.131,0.005,0.234,0.113,0.23,0.245
					c-0.004,0.128-0.109,0.23-0.237,0.23c-0.002,0-0.005,0-0.006,0c-0.13-0.004-3.204-0.122-6.164-2.663
					c-1.222-1.049-2.195-1.449-2.732-1.131c-0.57,0.339-0.695,1.54-0.337,3.215c0.854,3.994,4.003,6.361,8.438,6.361
					c0.059,0,0.143,0.007,0.177-0.001c0.13,0,0.236,0.104,0.238,0.234c0.002,0.132-0.103,0.239-0.234,0.241
					C54.612,106.813,54.551,106.813,54.491,106.813z"/>
				<path style="fill:#4C1172;" d="M52.608,111.813c-0.915,0.001-1.868-0.173-2.823-0.524c-2.121-0.779-3.765-2.306-4.091-3.797
					c-0.137-0.627-0.017-1.126,0.356-1.484c1.228-1.179,4.88-0.243,5.035-0.202c0.126,0.034,0.202,0.163,0.17,0.29
					c-0.034,0.126-0.159,0.199-0.29,0.17c-0.984-0.256-3.727-0.741-4.585,0.084c-0.25,0.239-0.322,0.58-0.222,1.04
					c0.293,1.341,1.816,2.728,3.792,3.454c2.299,0.842,4.575,0.599,6.244-0.674c0.103-0.079,0.252-0.058,0.333,0.046
					c0.079,0.104,0.059,0.253-0.045,0.333C55.381,111.386,54.042,111.813,52.608,111.813z"/>
				<path style="fill:#4C1172;" d="M53.93,115.663c-1.077,0-2.026-0.313-2.784-0.923c-0.917-0.739-1.303-1.421-1.148-2.03
					c0.265-1.04,2.031-1.369,2.106-1.383c0.128-0.027,0.251,0.062,0.276,0.191c0.023,0.13-0.062,0.253-0.191,0.276
					c-0.429,0.078-1.573,0.415-1.73,1.034c-0.103,0.406,0.237,0.94,0.986,1.543c0.872,0.702,1.996,0.957,3.338,0.75
					c2.349-0.359,4.567-1.998,5.265-3.044c0.072-0.11,0.22-0.137,0.329-0.066c0.11,0.073,0.138,0.221,0.066,0.329
					c-0.857,1.283-3.237,2.89-5.589,3.25C54.537,115.639,54.228,115.663,53.93,115.663z"/>
				<path style="fill:#4C1172;" d="M60.212,115.984c-2.081,0-3.515-1.01-3.543-1.03c-0.106-0.077-0.129-0.225-0.052-0.331
					c0.077-0.106,0.225-0.13,0.331-0.053c0.199,0.143,4.926,3.446,9.684-3.006c3.856-5.229,1.733-13.747-0.439-16.658
					c-0.525-0.703-1.025-1.035-1.37-0.909c-0.088,0.017-0.96,0.14-1.175,1.086c-0.181,0.798-0.554,1.348-1.049,1.549
					c-0.441,0.176-0.939,0.086-1.49-0.273l-0.498-0.323c-1.652-1.067-5.09-3.288-6.709-4.787c-1.122-1.038-1.933-1.507-2.378-1.394
					c-0.225,0.055-0.399,0.263-0.533,0.635c-0.503,1.402-1.372,7.123,3.555,9.507c0.119,0.057,0.168,0.199,0.11,0.316
					c-0.057,0.12-0.202,0.169-0.317,0.11c-5.246-2.538-4.328-8.607-3.795-10.094c0.189-0.528,0.481-0.842,0.867-0.937
					c0.645-0.156,1.515,0.306,2.814,1.508c1.59,1.471,5.003,3.677,6.644,4.737l0.5,0.325c0.41,0.267,0.766,0.347,1.051,0.229
					c0.348-0.14,0.619-0.572,0.764-1.215c0.233-1.023,1.103-1.389,1.531-1.44c0.348-0.136,1.004-0.062,1.86,1.084
					c2.242,3.007,4.431,11.813,0.44,17.224C64.596,115.126,62.129,115.984,60.212,115.984z"/>
			</g>
			<g>
				<path style="fill:#C3A4E0;" d="M51.553,90.413c0,0,0.414-0.461,1.905,1.027c1.491,1.487,5.875,5.17,8.119,5.495
					c0,0-3.549,0.575-6.984-2.784C51.158,90.792,51.344,90.828,51.553,90.413z"/>
				<path style="fill:#C3A4E0;" d="M46.447,97.053c0,0,0.578-0.562,2.535,0.969c1.957,1.531,2.647,2.18,6.257,2.85
					c0,0-3.078,0.39-5.431-1.238C47.455,98.005,47.433,97.054,46.447,97.053z"/>
				<path style="fill:#C3A4E0;" d="M46.381,107.337c0,0-0.141-1.709,3.72-0.954c3.86,0.755,4.831,0.599,4.832,0.599
					c-0.286,0.046-0.569,0.143-0.857,0.192c-0.784,0.134-1.601,0.174-2.401,0.116c-0.807-0.059-1.577-0.259-2.364-0.425
					c-0.593-0.125-1.218-0.19-1.819-0.083C47.117,106.849,46.611,107.001,46.381,107.337z"/>
				<path style="fill:#C3A4E0;" d="M56.696,110.877c-0.027,0.056-0.153,0.116-0.201,0.149c-0.192,0.132-0.395,0.248-0.603,0.352
					c-0.636,0.319-1.313,0.506-2.015,0.61c-0.485,0.072-0.974,0.116-1.458,0.2c-0.425,0.073-0.984,0.157-1.349,0.404
					c0.072-0.049,0.249-0.045,0.332-0.058c0.697-0.108,1.42-0.166,2.124-0.09c0.607,0.066,1.264,0.202,1.833-0.097
					c0.43-0.226,0.776-0.594,1.05-0.989C56.516,111.205,56.615,111.045,56.696,110.877z"/>
				<path style="fill:#C3A4E0;" d="M64.015,111.691c0,0-1.903,1.886-4.422,1.966C59.593,113.656,62.468,114.678,64.015,111.691z"/>
			</g>
			<path style="fill:#C3A4E0;" d="M67.091,104.678l0.321,4.512l2.61-4.009c0,0-0.913-10.084-4.113-11.9l-1.502,0.907
				C64.407,94.188,67.679,99.856,67.091,104.678z"/>
		</g>
	</g>
	<g>
		<g>
			<g>
				<path d="M25.524,56.38c-0.077,0.013-0.158,0.013-0.237-0.004c-3.853-0.812-6.848-2.9-8.902-6.206
					c-1.896-3.054-2.431-6.254-2.575-8.078c-4.526-2.742-7.148-6.501-8.009-11.479C3.846,19.312,15.423,7.839,31.61,5.038
					c16.187-2.801,30.946,4.115,32.901,15.417c1.955,11.301-9.622,22.774-25.809,25.575c-5.641,0.976-11.282,0.808-16.368-0.483
					c-0.257,4.334,3.081,9.139,3.534,9.77c0.089,0.088,0.151,0.204,0.174,0.337c0.059,0.342-0.169,0.667-0.511,0.726
					C25.53,56.379,25.527,56.38,25.524,56.38z"/>
			</g>
			<g>
				<g>
					<path style="fill:#4C1172;" d="M24.191,56.045c-0.077,0.013-0.157,0.012-0.236-0.005c-3.853-0.811-6.848-2.9-8.902-6.206
						c-1.896-3.053-2.431-6.254-2.575-8.077c-4.526-2.743-7.148-6.501-8.009-11.48C2.513,18.976,14.09,7.503,30.277,4.702
						c16.187-2.801,30.946,4.115,32.901,15.416c1.956,11.302-9.622,22.775-25.808,25.576c-5.64,0.976-11.282,0.807-16.368-0.484
						c-0.257,4.333,3.081,9.14,3.534,9.77c0.089,0.088,0.151,0.204,0.174,0.337c0.059,0.342-0.17,0.667-0.512,0.726
						C24.197,56.043,24.193,56.044,24.191,56.045z"/>
				</g>
				<g>
					<path style="fill-rule:evenodd;clip-rule:evenodd;fill:#FFFDEE;" d="M28.662,5.194C12.792,7.94,1.466,19.066,3.366,30.043
						c0.826,4.774,3.345,8.49,7.994,11.215c0.278,4.668,2.734,12.299,11.002,14.041c0,0-4.422-5.908-3.628-11.01
						c4.993,1.386,10.793,1.7,16.807,0.66c15.871-2.746,27.196-13.871,25.297-24.849C58.938,9.122,44.533,2.448,28.662,5.194z"/>
					<path style="fill:#C3A4E0;" d="M22.468,55.918c-0.077,0.013-0.157,0.012-0.236-0.005c-3.854-0.811-6.849-2.899-8.902-6.206
						c-1.896-3.053-2.431-6.254-2.575-8.077c-4.527-2.743-7.148-6.501-8.009-11.48C0.791,18.849,12.369,7.376,28.555,4.575
						C44.741,1.775,59.501,8.69,61.457,19.992c1.955,11.301-9.622,22.775-25.809,25.575c-5.64,0.976-11.282,0.807-16.368-0.483
						c-0.256,4.333,3.081,9.139,3.534,9.77c0.089,0.088,0.152,0.204,0.175,0.336c0.059,0.342-0.17,0.667-0.512,0.727
						C22.475,55.916,22.471,55.917,22.468,55.918z M28.769,5.813C13.266,8.495,2.147,19.317,3.984,29.936
						c0.813,4.696,3.329,8.222,7.693,10.78c0.181,0.107,0.297,0.296,0.309,0.505c0.107,1.79,1.032,10.383,8.928,13.037
						c-1.297-2.119-3.395-6.255-2.801-10.066c0.028-0.177,0.129-0.334,0.28-0.431c0.151-0.097,0.335-0.125,0.508-0.077
						c5.091,1.413,10.808,1.636,16.532,0.645c15.504-2.683,26.622-13.504,24.785-24.123C58.381,9.587,44.273,3.13,28.769,5.813z"/>
				</g>
			</g>
		</g>
		<g>
			<g>
				<path style="fill:#FFFFFF;" d="M30.17,37.329c-0.671-0.76-1.029-1.609-1.029-2.593c0-0.714,0.134-1.34,0.447-1.921
					c0.313-0.626,0.76-1.073,1.252-1.386c0.581-0.357,1.207-0.491,1.966-0.491c0.625,0,1.251,0.134,1.832,0.447
					c0.581,0.313,0.983,0.76,1.34,1.34c0.313,0.581,0.492,1.251,0.492,1.966c0,0.939-0.313,1.787-0.939,2.592
					c-0.625,0.714-1.52,1.117-2.681,1.117C31.734,38.401,30.84,37.999,30.17,37.329z M36.604,10.203l-2.279,18.456l-2.904,0.804
					l-2.146-17.472c1.192-0.561,2.632-1.04,3.78-1.458c0.598-0.218,1.223-0.331,1.86-0.331H36.604z"/>
			</g>
			<g>
				<path style="fill:#8565AA;" d="M28.627,37.329c-0.671-0.76-1.029-1.609-1.029-2.593c0-0.714,0.134-1.34,0.447-1.921
					c0.313-0.626,0.76-1.073,1.252-1.386c0.581-0.357,1.207-0.491,1.966-0.491c0.625,0,1.251,0.134,1.832,0.447
					c0.581,0.313,0.983,0.76,1.34,1.34c0.313,0.581,0.492,1.251,0.492,1.966c0,0.939-0.313,1.787-0.939,2.592
					c-0.625,0.714-1.52,1.117-2.681,1.117C30.191,38.401,29.297,37.999,28.627,37.329z M35.061,10.203l-2.279,18.456l-2.904,0.804
					l-2.146-17.472c1.192-0.561,2.632-1.04,3.78-1.458c0.598-0.218,1.223-0.331,1.86-0.331H35.061z"/>
			</g>
		</g>
	</g>
</g>
</svg>
